<svg width="155" height="43" viewBox="0 0 155 43" fill="none" xmlns="http://www.w3.org/2000/svg">
<path fill-rule="evenodd" clip-rule="evenodd" d="M2.66364 7.72125C-0.387826 11.642 -0.735907 28.6088 1.9348 33.1835C11.9638 50.3626 12.8301 -5.3413 2.66364 7.72125ZM11.1733 12.9159C11.1728 16.9956 11.6687 24.2877 19.1346 21.5224C39.2557 14.0698 11.1754 -3.89172 11.1733 12.9159ZM19.5316 23.0312C12.2581 23.0312 10.4109 23.0918 11.1752 27.8409C14.9793 51.4792 34.8779 23.0312 19.5316 23.0312Z" fill="url(#paint0_linear_63_12)"/>
<path d="M42.1378 28V14.9091H44.8608V19.831H44.9439C45.0632 19.5668 45.2358 19.2983 45.4616 19.0256C45.6918 18.7486 45.9901 18.5185 46.3565 18.3352C46.7273 18.1477 47.1875 18.054 47.7372 18.054C48.4531 18.054 49.1136 18.2415 49.7188 18.6165C50.3239 18.9872 50.8075 19.5476 51.1697 20.2976C51.532 21.0433 51.7131 21.9787 51.7131 23.1037C51.7131 24.1989 51.5362 25.1236 51.1825 25.8778C50.8331 26.6278 50.3558 27.1967 49.7507 27.5845C49.1499 27.968 48.4766 28.1598 47.7308 28.1598C47.2024 28.1598 46.7528 28.0724 46.3821 27.8977C46.0156 27.723 45.7152 27.5036 45.4808 27.2393C45.2464 26.9709 45.0675 26.7003 44.9439 26.4276H44.8224V28H42.1378ZM44.8033 23.0909C44.8033 23.6747 44.8842 24.1839 45.0462 24.6186C45.2081 25.0533 45.4425 25.392 45.7493 25.6349C46.0561 25.8736 46.429 25.9929 46.8679 25.9929C47.3111 25.9929 47.6861 25.8714 47.9929 25.6286C48.2997 25.3814 48.532 25.0405 48.6896 24.6058C48.8516 24.1669 48.9325 23.6619 48.9325 23.0909C48.9325 22.5241 48.8537 22.0256 48.696 21.5952C48.5384 21.1648 48.3061 20.8281 47.9993 20.5852C47.6925 20.3423 47.3153 20.2209 46.8679 20.2209C46.4247 20.2209 46.0497 20.3381 45.7429 20.5724C45.4403 20.8068 45.2081 21.1392 45.0462 21.5696C44.8842 22 44.8033 22.5071 44.8033 23.0909ZM59.8262 23.8196V18.1818H62.5492V28H59.9348V26.2166H59.8326C59.611 26.7919 59.2424 27.2543 58.7267 27.6037C58.2154 27.9531 57.5911 28.1278 56.8539 28.1278C56.1976 28.1278 55.6202 27.9787 55.1216 27.6804C54.623 27.3821 54.2331 26.9581 53.9519 26.4084C53.6749 25.8587 53.5343 25.2003 53.53 24.4332V18.1818H56.253V23.9474C56.2573 24.527 56.4128 24.9851 56.7196 25.3217C57.0265 25.6584 57.4377 25.8267 57.9533 25.8267C58.2814 25.8267 58.5882 25.7521 58.8738 25.603C59.1593 25.4496 59.3894 25.2237 59.5641 24.9254C59.7431 24.6271 59.8304 24.2585 59.8262 23.8196ZM64.7273 28V18.1818H67.4503V28H64.7273ZM66.0952 16.9162C65.6903 16.9162 65.343 16.782 65.0533 16.5135C64.7678 16.2408 64.625 15.9148 64.625 15.5355C64.625 15.1605 64.7678 14.8388 65.0533 14.5703C65.343 14.2976 65.6903 14.1612 66.0952 14.1612C66.5 14.1612 66.8452 14.2976 67.1307 14.5703C67.4205 14.8388 67.5653 15.1605 67.5653 15.5355C67.5653 15.9148 67.4205 16.2408 67.1307 16.5135C66.8452 16.782 66.5 16.9162 66.0952 16.9162ZM72.3546 14.9091V28H69.6316V14.9091H72.3546ZM78.1538 28.1598C77.408 28.1598 76.7326 27.968 76.1275 27.5845C75.5266 27.1967 75.0494 26.6278 74.6957 25.8778C74.3462 25.1236 74.1715 24.1989 74.1715 23.1037C74.1715 21.9787 74.3526 21.0433 74.7148 20.2976C75.0771 19.5476 75.5586 18.9872 76.1594 18.6165C76.7646 18.2415 77.4272 18.054 78.1474 18.054C78.6971 18.054 79.1552 18.1477 79.5217 18.3352C79.8924 18.5185 80.1907 18.7486 80.4165 19.0256C80.6467 19.2983 80.8214 19.5668 80.9407 19.831H81.0238V14.9091H83.7404V28H81.0558V26.4276H80.9407C80.8129 26.7003 80.6317 26.9709 80.3974 27.2393C80.1673 27.5036 79.8668 27.723 79.4961 27.8977C79.1296 28.0724 78.6822 28.1598 78.1538 28.1598ZM79.0167 25.9929C79.4556 25.9929 79.8263 25.8736 80.1289 25.6349C80.4357 25.392 80.6701 25.0533 80.832 24.6186C80.9982 24.1839 81.0813 23.6747 81.0813 23.0909C81.0813 22.5071 81.0004 22 80.8384 21.5696C80.6765 21.1392 80.4421 20.8068 80.1353 20.5724C79.8285 20.3381 79.4556 20.2209 79.0167 20.2209C78.5692 20.2209 78.1921 20.3423 77.8853 20.5852C77.5785 20.8281 77.3462 21.1648 77.1886 21.5952C77.0309 22.0256 76.9521 22.5241 76.9521 23.0909C76.9521 23.6619 77.0309 24.1669 77.1886 24.6058C77.3505 25.0405 77.5827 25.3814 77.8853 25.6286C78.1921 25.8714 78.5692 25.9929 79.0167 25.9929ZM85.9792 28V18.1818H88.5744V19.9141H88.6895C88.894 19.3388 89.2349 18.8849 89.7122 18.5526C90.1895 18.2202 90.7605 18.054 91.4252 18.054C92.0985 18.054 92.6717 18.2223 93.1447 18.5589C93.6177 18.8913 93.9331 19.343 94.0907 19.9141H94.193C94.3933 19.3516 94.7555 18.902 95.2797 18.5653C95.8081 18.2244 96.4324 18.054 97.1525 18.054C98.0687 18.054 98.8123 18.3459 99.3833 18.9297C99.9586 19.5092 100.246 20.3317 100.246 21.397V28H97.5297V21.9339C97.5297 21.3885 97.3848 20.9794 97.095 20.7067C96.8052 20.4339 96.443 20.2976 96.0083 20.2976C95.514 20.2976 95.1284 20.4553 94.8514 20.7706C94.5744 21.0817 94.4359 21.4929 94.4359 22.0043V28H91.796V21.8764C91.796 21.3949 91.6575 21.0114 91.3805 20.7259C91.1078 20.4403 90.7477 20.2976 90.3002 20.2976C89.9977 20.2976 89.725 20.3743 89.4821 20.5277C89.2434 20.6768 89.0538 20.8878 88.9132 21.1605C88.7725 21.429 88.7022 21.7443 88.7022 22.1065V28H85.9792ZM103.727 31.6818C103.382 31.6818 103.058 31.6541 102.755 31.5987C102.457 31.5476 102.21 31.4815 102.014 31.4006L102.627 29.3679C102.947 29.4659 103.235 29.5192 103.49 29.5277C103.75 29.5362 103.974 29.4766 104.161 29.3487C104.353 29.2209 104.509 29.0036 104.628 28.6967L104.788 28.2812L101.266 18.1818H104.129L106.162 25.392H106.264L108.316 18.1818H111.199L107.383 29.0611C107.2 29.5895 106.95 30.0497 106.635 30.4418C106.324 30.8381 105.93 31.1428 105.453 31.3558C104.975 31.5732 104.4 31.6818 103.727 31.6818Z" fill="#343434"/>
<path d="M114.184 28.1662C113.762 28.1662 113.4 28.017 113.097 27.7188C112.799 27.4162 112.65 27.054 112.65 26.6321C112.65 26.2145 112.799 25.8565 113.097 25.5582C113.4 25.2599 113.762 25.1108 114.184 25.1108C114.593 25.1108 114.951 25.2599 115.258 25.5582C115.565 25.8565 115.718 26.2145 115.718 26.6321C115.718 26.9134 115.646 27.1712 115.501 27.4055C115.36 27.6357 115.175 27.821 114.945 27.9616C114.715 28.098 114.461 28.1662 114.184 28.1662ZM122.39 28.1918C121.384 28.1918 120.519 27.9787 119.795 27.5526C119.075 27.1222 118.521 26.5256 118.133 25.7628C117.749 25 117.558 24.1222 117.558 23.1293C117.558 22.1236 117.751 21.2415 118.139 20.483C118.531 19.7202 119.087 19.1257 119.808 18.6996C120.528 18.2692 121.384 18.054 122.377 18.054C123.234 18.054 123.984 18.2095 124.627 18.5206C125.271 18.8317 125.78 19.2685 126.155 19.831C126.53 20.3935 126.737 21.054 126.775 21.8125H124.205C124.133 21.3224 123.941 20.9283 123.63 20.63C123.323 20.3274 122.92 20.1761 122.422 20.1761C122 20.1761 121.631 20.2912 121.316 20.5213C121.005 20.7472 120.762 21.0774 120.587 21.5121C120.413 21.9467 120.325 22.473 120.325 23.0909C120.325 23.7173 120.411 24.25 120.581 24.6889C120.756 25.1278 121.001 25.4624 121.316 25.6925C121.631 25.9226 122 26.0376 122.422 26.0376C122.733 26.0376 123.012 25.9737 123.259 25.8459C123.511 25.718 123.717 25.5327 123.879 25.2898C124.045 25.0426 124.154 24.7464 124.205 24.4013H126.775C126.732 25.1513 126.528 25.8118 126.161 26.3828C125.799 26.9496 125.298 27.3928 124.659 27.7124C124.02 28.032 123.263 28.1918 122.39 28.1918ZM132.954 28.1918C131.961 28.1918 131.103 27.9808 130.378 27.5589C129.658 27.1328 129.102 26.5405 128.71 25.782C128.318 25.0192 128.122 24.1349 128.122 23.1293C128.122 22.1151 128.318 21.2287 128.71 20.4702C129.102 19.7074 129.658 19.1151 130.378 18.6932C131.103 18.267 131.961 18.054 132.954 18.054C133.947 18.054 134.804 18.267 135.524 18.6932C136.248 19.1151 136.807 19.7074 137.199 20.4702C137.591 21.2287 137.787 22.1151 137.787 23.1293C137.787 24.1349 137.591 25.0192 137.199 25.782C136.807 26.5405 136.248 27.1328 135.524 27.5589C134.804 27.9808 133.947 28.1918 132.954 28.1918ZM132.967 26.0824C133.419 26.0824 133.796 25.9545 134.099 25.6989C134.401 25.4389 134.629 25.0852 134.782 24.6378C134.94 24.1903 135.019 23.6811 135.019 23.1101C135.019 22.5391 134.94 22.0298 134.782 21.5824C134.629 21.1349 134.401 20.7812 134.099 20.5213C133.796 20.2614 133.419 20.1314 132.967 20.1314C132.511 20.1314 132.128 20.2614 131.817 20.5213C131.51 20.7812 131.278 21.1349 131.12 21.5824C130.966 22.0298 130.89 22.5391 130.89 23.1101C130.89 23.6811 130.966 24.1903 131.12 24.6378C131.278 25.0852 131.51 25.4389 131.817 25.6989C132.128 25.9545 132.511 26.0824 132.967 26.0824ZM139.557 28V18.1818H142.153V19.9141H142.268C142.472 19.3388 142.813 18.8849 143.29 18.5526C143.768 18.2202 144.339 18.054 145.003 18.054C145.677 18.054 146.25 18.2223 146.723 18.5589C147.196 18.8913 147.511 19.343 147.669 19.9141H147.771C147.971 19.3516 148.334 18.902 148.858 18.5653C149.386 18.2244 150.01 18.054 150.731 18.054C151.647 18.054 152.39 18.3459 152.961 18.9297C153.537 19.5092 153.824 20.3317 153.824 21.397V28H151.108V21.9339C151.108 21.3885 150.963 20.9794 150.673 20.7067C150.383 20.4339 150.021 20.2976 149.586 20.2976C149.092 20.2976 148.706 20.4553 148.43 20.7706C148.153 21.0817 148.014 21.4929 148.014 22.0043V28H145.374V21.8764C145.374 21.3949 145.236 21.0114 144.959 20.7259C144.686 20.4403 144.326 20.2976 143.878 20.2976C143.576 20.2976 143.303 20.3743 143.06 20.5277C142.822 20.6768 142.632 20.8878 142.491 21.1605C142.351 21.429 142.28 21.7443 142.28 22.1065V28H139.557Z" fill="url(#paint1_linear_63_12)"/>
<defs>
<linearGradient id="paint0_linear_63_12" x1="-17.6824" y1="30.6451" x2="5.04365" y2="-8.36842" gradientUnits="userSpaceOnUse">
<stop stop-color="#FFA1A1"/>
<stop offset="1" stop-color="#EBAB08" stop-opacity="0.78"/>
</linearGradient>
<linearGradient id="paint1_linear_63_12" x1="26.3783" y1="3.58332" x2="156.909" y2="59.9099" gradientUnits="userSpaceOnUse">
<stop stop-color="#FFA1A1"/>
<stop offset="1" stop-color="#EBAB08" stop-opacity="0.78"/>
</linearGradient>
</defs>
</svg>
