<svg width="50" height="50" viewBox="0 0 50 50" fill="none" xmlns="http://www.w3.org/2000/svg">
<path d="M25 4.6875C20.9826 4.6875 17.0554 5.87881 13.715 8.11077C10.3746 10.3427 7.77111 13.5151 6.23371 17.2267C4.6963 20.9384 4.29405 25.0225 5.07781 28.9628C5.86157 32.903 7.79615 36.5224 10.6369 39.3631C13.4777 42.2039 17.097 44.1384 21.0372 44.9222C24.9775 45.706 29.0616 45.3037 32.7733 43.7663C36.4849 42.2289 39.6573 39.6254 41.8892 36.285C44.1212 32.9446 45.3125 29.0174 45.3125 25C45.3068 19.6145 43.1649 14.4513 39.3568 10.6432C35.5487 6.83507 30.3855 4.69319 25 4.6875ZM32.3555 24.543C32.2104 24.6882 32.038 24.8035 31.8484 24.8821C31.6587 24.9608 31.4553 25.0012 31.25 25.0012C31.0447 25.0012 30.8413 24.9608 30.6517 24.8821C30.462 24.8035 30.2897 24.6882 30.1445 24.543L26.5625 20.959V32.8125C26.5625 33.2269 26.3979 33.6243 26.1049 33.9174C25.8118 34.2104 25.4144 34.375 25 34.375C24.5856 34.375 24.1882 34.2104 23.8952 33.9174C23.6021 33.6243 23.4375 33.2269 23.4375 32.8125V20.959L19.8555 24.543C19.5623 24.8362 19.1646 25.0009 18.75 25.0009C18.3354 25.0009 17.9377 24.8362 17.6445 24.543C17.3514 24.2498 17.1866 23.8521 17.1866 23.4375C17.1866 23.0229 17.3514 22.6252 17.6445 22.332L23.8945 16.082C24.0397 15.9368 24.212 15.8215 24.4017 15.7429C24.5913 15.6642 24.7947 15.6238 25 15.6238C25.2053 15.6238 25.4087 15.6642 25.5984 15.7429C25.788 15.8215 25.9604 15.9368 26.1055 16.082L32.3555 22.332C32.5008 22.4771 32.616 22.6495 32.6946 22.8392C32.7733 23.0288 32.8137 23.2322 32.8137 23.4375C32.8137 23.6428 32.7733 23.8462 32.6946 24.0358C32.616 24.2255 32.5008 24.3979 32.3555 24.543Z" fill="url(#paint0_linear_42_1164)"/>
<defs>
<linearGradient id="paint0_linear_42_1164" x1="-0.523097" y1="-7.16148" x2="54.2744" y2="-2.59817" gradientUnits="userSpaceOnUse">
<stop stop-color="#FFA1A1"/>
<stop offset="1" stop-color="#EBAB08" stop-opacity="0.78"/>
</linearGradient>
</defs>
</svg>
