<svg width="50" height="50" viewBox="0 0 50 50" fill="none" xmlns="http://www.w3.org/2000/svg">
<path d="M45.3125 24.9999C45.3125 25.0995 45.3125 25.1952 45.3125 25.2968C45.2461 28.0819 44.2129 31.2499 39.8438 31.2499C35.3242 31.2499 34.375 27.8515 34.375 24.9999V17.1874C34.3755 16.9732 34.3319 16.7612 34.247 16.5646C34.1621 16.3679 34.0376 16.1908 33.8814 16.0443C33.7251 15.8978 33.5404 15.7849 33.3388 15.7128C33.1371 15.6406 32.9227 15.6107 32.709 15.6249C32.3065 15.6595 31.9321 15.8454 31.6614 16.1452C31.3906 16.4449 31.2436 16.8362 31.25 17.2401V18.0214C29.8394 16.7572 28.079 15.9499 26.2007 15.7059C24.3223 15.4619 22.414 15.7926 20.7273 16.6544C19.0406 17.5163 17.6545 18.8689 16.7516 20.534C15.8487 22.1991 15.4713 24.0987 15.6693 25.9825C15.8672 27.8663 16.6311 29.6459 17.8604 31.087C19.0897 32.5281 20.7267 33.563 22.5557 34.0554C24.3847 34.5479 26.32 34.4747 28.1067 33.8456C29.8933 33.2165 31.4475 32.0609 32.5645 30.5312C32.7597 30.8728 32.9804 31.1992 33.2246 31.5077C34.2734 32.8124 36.2715 34.3749 39.8438 34.3749C40.4471 34.3769 41.0495 34.3279 41.6445 34.2284C41.7916 34.2039 41.9427 34.222 42.0799 34.2806C42.217 34.3391 42.3346 34.4358 42.4186 34.559C42.5026 34.6822 42.5495 34.8269 42.5539 34.976C42.5583 35.1251 42.52 35.2723 42.4434 35.4003C40.607 38.4807 37.9882 41.0203 34.8528 42.7612C31.7175 44.502 28.1773 45.3823 24.5918 45.3124C13.8926 45.0976 5.11719 36.496 4.70312 25.8026C4.59722 23.104 5.03054 20.4113 5.97774 17.8821C6.92494 15.3529 8.36701 13.038 10.2196 11.0728C12.0721 9.10762 14.298 7.53159 16.7669 6.43693C19.2359 5.34226 21.8983 4.75095 24.5986 4.69757C27.2988 4.6442 29.9825 5.12983 32.4928 6.12607C35.0031 7.12231 37.2895 8.60914 39.2183 10.4996C41.147 12.39 42.6795 14.6462 43.7259 17.1359C44.7723 19.6257 45.3117 22.2992 45.3125 24.9999ZM18.75 24.9999C18.75 26.236 19.1166 27.4444 19.8033 28.4722C20.4901 29.5 21.4662 30.3011 22.6082 30.7742C23.7503 31.2472 25.0069 31.371 26.2193 31.1298C27.4317 30.8887 28.5453 30.2934 29.4194 29.4193C30.2935 28.5453 30.8888 27.4316 31.1299 26.2192C31.3711 25.0068 31.2473 23.7502 30.7742 22.6081C30.3012 21.4661 29.5001 20.49 28.4723 19.8032C27.4445 19.1165 26.2361 18.7499 25 18.7499C23.3424 18.7499 21.7527 19.4084 20.5806 20.5805C19.4085 21.7526 18.75 23.3423 18.75 24.9999Z" fill="url(#paint0_linear_42_1168)"/>
<defs>
<linearGradient id="paint0_linear_42_1168" x1="-0.523096" y1="-7.15469" x2="54.2744" y2="-2.59113" gradientUnits="userSpaceOnUse">
<stop stop-color="#FFA1A1"/>
<stop offset="1" stop-color="#EBAB08" stop-opacity="0.78"/>
</linearGradient>
</defs>
</svg>
