<svg width="50" height="50" viewBox="0 0 50 50" fill="none" xmlns="http://www.w3.org/2000/svg">
<path d="M42.1875 7.8125H7.8125C6.9837 7.8125 6.18884 8.14174 5.60279 8.72779C5.01674 9.31384 4.6875 10.1087 4.6875 10.9375V39.0625C4.6875 39.8913 5.01674 40.6862 5.60279 41.2722C6.18884 41.8583 6.9837 42.1875 7.8125 42.1875H42.1875C43.0163 42.1875 43.8112 41.8583 44.3972 41.2722C44.9833 40.6862 45.3125 39.8913 45.3125 39.0625V10.9375C45.3125 10.1087 44.9833 9.31384 44.3972 8.72779C43.8112 8.14174 43.0163 7.8125 42.1875 7.8125ZM17.1875 30.4375C17.2441 33.2227 17.2676 34.375 20.3125 34.375C20.7269 34.375 21.1243 34.5396 21.4174 34.8326C21.7104 35.1257 21.875 35.5231 21.875 35.9375C21.875 36.3519 21.7104 36.7493 21.4174 37.0424C21.1243 37.3354 20.7269 37.5 20.3125 37.5C14.2051 37.5 14.1172 33.1191 14.0625 30.5C14.0059 27.7148 13.9824 26.5625 10.9375 26.5625C10.5231 26.5625 10.1257 26.3979 9.83265 26.1049C9.53962 25.8118 9.375 25.4144 9.375 25C9.375 24.5856 9.53962 24.1882 9.83265 23.8951C10.1257 23.6021 10.5231 23.4375 10.9375 23.4375C13.9824 23.4375 14.0059 22.2852 14.0625 19.5C14.1172 16.8809 14.2051 12.5 20.3125 12.5C20.7269 12.5 21.1243 12.6646 21.4174 12.9576C21.7104 13.2507 21.875 13.6481 21.875 14.0625C21.875 14.4769 21.7104 14.8743 21.4174 15.1674C21.1243 15.4604 20.7269 15.625 20.3125 15.625C17.2676 15.625 17.2441 16.7773 17.1875 19.5625C17.1543 21.1855 17.1074 23.4863 15.625 25C17.1074 26.5137 17.1543 28.8145 17.1875 30.4375ZM39.0625 26.5625C36.0176 26.5625 35.9941 27.7148 35.9375 30.5C35.8828 33.1191 35.7949 37.5 29.6875 37.5C29.2731 37.5 28.8757 37.3354 28.5826 37.0424C28.2896 36.7493 28.125 36.3519 28.125 35.9375C28.125 35.5231 28.2896 35.1257 28.5826 34.8326C28.8757 34.5396 29.2731 34.375 29.6875 34.375C32.7324 34.375 32.7559 33.2227 32.8125 30.4375C32.8457 28.8145 32.8926 26.5137 34.375 25C32.8906 23.4863 32.8438 21.1855 32.8125 19.5625C32.7559 16.7773 32.7324 15.625 29.6875 15.625C29.2731 15.625 28.8757 15.4604 28.5826 15.1674C28.2896 14.8743 28.125 14.4769 28.125 14.0625C28.125 13.6481 28.2896 13.2507 28.5826 12.9576C28.8757 12.6646 29.2731 12.5 29.6875 12.5C35.7949 12.5 35.8828 16.8809 35.9375 19.5C35.9941 22.2852 36.0176 23.4375 39.0625 23.4375C39.4769 23.4375 39.8743 23.6021 40.1674 23.8951C40.4604 24.1882 40.625 24.5856 40.625 25C40.625 25.4144 40.4604 25.8118 40.1674 26.1049C39.8743 26.3979 39.4769 26.5625 39.0625 26.5625Z" fill="url(#paint0_linear_42_1170)"/>
<defs>
<linearGradient id="paint0_linear_42_1170" x1="-0.523096" y1="-2.21356" x2="54.1251" y2="3.16475" gradientUnits="userSpaceOnUse">
<stop stop-color="#FFA1A1"/>
<stop offset="1" stop-color="#EBAB08" stop-opacity="0.78"/>
</linearGradient>
</defs>
</svg>
