<svg width="50" height="50" viewBox="0 0 50 50" fill="none" xmlns="http://www.w3.org/2000/svg">
<path d="M41.4062 14.8438V14.0625C41.4041 12.3696 40.9021 10.7151 39.9632 9.30644C39.0243 7.89782 37.6902 6.79789 36.1284 6.14468C34.5666 5.49147 32.8467 5.31408 31.1845 5.63477C29.5223 5.95546 27.9918 6.75994 26.7851 7.94727C26.7137 8.01921 26.6573 8.10457 26.6191 8.19844C26.5809 8.2923 26.5616 8.3928 26.5624 8.49414V25.8223C26.5628 25.9631 26.6013 26.1013 26.6737 26.222C26.7462 26.3428 26.8499 26.4418 26.974 26.5084C27.0981 26.5751 27.2379 26.607 27.3786 26.6007C27.5193 26.5944 27.6557 26.5501 27.7734 26.4727C29.2591 25.52 30.985 25.0093 32.7499 25C33.1585 24.9924 33.5544 25.1416 33.8563 25.417C34.1582 25.6924 34.3431 26.073 34.373 26.4805C34.3841 26.6925 34.352 26.9045 34.2784 27.1036C34.2049 27.3028 34.0916 27.4848 33.9454 27.6387C33.7992 27.7926 33.6231 27.9151 33.428 27.9987C33.2329 28.0823 33.0228 28.1253 32.8105 28.125C31.1529 28.125 29.5632 28.7835 28.3911 29.9556C27.219 31.1277 26.5605 32.7174 26.5605 34.375V40.9922C26.5603 41.1091 26.5864 41.2245 26.6368 41.3299C26.6871 41.4354 26.7605 41.5282 26.8515 41.6016C27.9603 42.5192 29.2657 43.1687 30.6664 43.4997C32.067 43.8307 33.5251 43.8342 34.9274 43.5099C36.3296 43.1857 37.6381 42.5424 38.7513 41.6302C39.8645 40.7179 40.7523 39.5612 41.3456 38.25C41.4054 38.1181 41.4273 37.9723 41.409 37.8287C41.3906 37.6851 41.3328 37.5494 41.2418 37.4368C41.1509 37.3242 41.0304 37.239 40.8939 37.1909C40.7574 37.1427 40.6102 37.1334 40.4687 37.1641C39.4949 37.3872 38.499 37.4999 37.4999 37.5H35.9902C35.5871 37.505 35.197 37.3574 34.8981 37.0868C34.5993 36.8162 34.4138 36.4426 34.3788 36.041C34.3647 35.8273 34.3946 35.6129 34.4667 35.4112C34.5388 35.2096 34.6517 35.0249 34.7982 34.8686C34.9448 34.7124 35.1218 34.5879 35.3185 34.503C35.5151 34.4181 35.7271 34.3745 35.9413 34.375H37.5038C39.1363 34.3775 40.7449 33.9834 42.1913 33.2266C43.9043 32.3344 45.3273 30.9724 46.2936 29.3002C47.2599 27.628 47.7294 25.7149 47.647 23.7854C47.5646 21.8558 46.9337 19.9897 45.8283 18.406C44.723 16.8223 43.189 15.5866 41.4062 14.8438ZM39.0624 21.875H38.2812C36.4164 21.875 34.628 21.1342 33.3093 19.8156C31.9907 18.497 31.2499 16.7086 31.2499 14.8438V14.0625C31.2499 13.6481 31.4146 13.2507 31.7076 12.9576C32.0006 12.6646 32.398 12.5 32.8124 12.5C33.2268 12.5 33.6243 12.6646 33.9173 12.9576C34.2103 13.2507 34.3749 13.6481 34.3749 14.0625V14.8438C34.3749 15.3567 34.476 15.8647 34.6723 16.3386C34.8686 16.8125 35.1563 17.2432 35.5191 17.6059C36.2516 18.3385 37.2452 18.75 38.2812 18.75H39.0624C39.4768 18.75 39.8743 18.9146 40.1673 19.2076C40.4603 19.5007 40.6249 19.8981 40.6249 20.3125C40.6249 20.7269 40.4603 21.1243 40.1673 21.4174C39.8743 21.7104 39.4768 21.875 39.0624 21.875ZM17.1874 5.46875C14.909 5.47134 12.7247 6.37758 11.1136 7.98866C9.50252 9.59974 8.59628 11.7841 8.59369 14.0625V14.8438C6.81113 15.587 5.27743 16.823 4.17244 18.407C3.06745 19.9909 2.43699 21.8571 2.35499 23.7866C2.27298 25.7162 2.74284 27.6291 3.70945 29.3011C4.67607 30.9731 6.09937 32.3348 7.81244 33.2266C9.25887 33.9834 10.8675 34.3775 12.4999 34.375H14.0097C14.4135 34.369 14.8045 34.5162 15.1042 34.7869C15.4039 35.0576 15.5899 35.4317 15.6249 35.834C15.6391 36.0477 15.6092 36.2621 15.5371 36.4638C15.4649 36.6654 15.3521 36.8501 15.2056 37.0064C15.059 37.1626 14.8819 37.2871 14.6853 37.372C14.4886 37.4569 14.2766 37.5005 14.0624 37.5H12.4999C11.5001 37.5004 10.5035 37.3871 9.52924 37.1621C9.38786 37.1313 9.24069 37.1403 9.10414 37.1882C8.96759 37.2361 8.84703 37.321 8.75589 37.4334C8.66476 37.5458 8.60663 37.6813 8.58799 37.8248C8.56935 37.9683 8.59093 38.1141 8.65033 38.2461C9.24356 39.5577 10.1313 40.7147 11.2444 41.6274C12.3576 42.5401 13.6663 43.1837 15.0687 43.5083C16.4711 43.833 17.9294 43.8298 19.3304 43.4991C20.7314 43.1684 22.0372 42.5191 23.1464 41.6016C23.2374 41.5282 23.3108 41.4354 23.3612 41.3299C23.4115 41.2245 23.4376 41.1091 23.4374 40.9922V34.375C23.4374 32.7174 22.779 31.1277 21.6069 29.9556C20.4348 28.7835 18.845 28.125 17.1874 28.125C16.9752 28.1253 16.765 28.0823 16.5699 27.9987C16.3748 27.9151 16.1988 27.7926 16.0525 27.6387C15.9063 27.4848 15.793 27.3028 15.7195 27.1036C15.646 26.9045 15.6138 26.6925 15.6249 26.4805C15.6549 26.0726 15.84 25.6917 16.1423 25.4163C16.4447 25.1409 16.8411 24.9919 17.2499 25C19.0148 25.0093 20.7408 25.52 22.2265 26.4727C22.3441 26.5501 22.4805 26.5944 22.6213 26.6007C22.762 26.607 22.9018 26.5751 23.0259 26.5084C23.1499 26.4418 23.2537 26.3428 23.3262 26.222C23.3986 26.1013 23.4371 25.9631 23.4374 25.8223V8.49414C23.4381 8.28907 23.3582 8.09194 23.2148 7.94531C21.6105 6.35786 19.4444 5.46784 17.1874 5.46875ZM18.7499 14.8438C18.7499 16.7086 18.0092 18.497 16.6905 19.8156C15.3719 21.1342 13.5835 21.875 11.7187 21.875H10.9374C10.523 21.875 10.1256 21.7104 9.83259 21.4174C9.53956 21.1243 9.37494 20.7269 9.37494 20.3125C9.37494 19.8981 9.53956 19.5007 9.83259 19.2076C10.1256 18.9146 10.523 18.75 10.9374 18.75H11.7187C12.2317 18.75 12.7396 18.649 13.2135 18.4527C13.6875 18.2563 14.1181 17.9686 14.4808 17.6059C14.8436 17.2432 15.1313 16.8125 15.3276 16.3386C15.5239 15.8647 15.6249 15.3567 15.6249 14.8438V14.0625C15.6249 13.6481 15.7896 13.2507 16.0826 12.9576C16.3756 12.6646 16.773 12.5 17.1874 12.5C17.6018 12.5 17.9993 12.6646 18.2923 12.9576C18.5853 13.2507 18.7499 13.6481 18.7499 14.0625V14.8438Z" fill="url(#paint0_linear_42_1162)"/>
<defs>
<linearGradient id="paint0_linear_42_1162" x1="-3.46572" y1="-5.6968" x2="57.4835" y2="0.310681" gradientUnits="userSpaceOnUse">
<stop stop-color="#FFA1A1"/>
<stop offset="1" stop-color="#EBAB08" stop-opacity="0.78"/>
</linearGradient>
</defs>
</svg>
