<svg width="50" height="50" viewBox="0 0 50 50" fill="none" xmlns="http://www.w3.org/2000/svg">
<path d="M19.5313 22.7402C19.7689 22.6031 19.9662 22.4058 20.1033 22.1682C20.2404 21.9306 20.3126 21.6611 20.3125 21.3867V7.32422C20.3111 7.07511 20.2502 6.82994 20.1348 6.60916C20.0194 6.38839 19.8529 6.1984 19.6492 6.05506C19.4454 5.91171 19.2104 5.81916 18.9636 5.78512C18.7168 5.75108 18.4655 5.77654 18.2305 5.85938C13.6699 7.47347 9.83465 10.6614 7.41414 14.8501C4.99363 19.0389 4.14664 23.9536 5.02543 28.7109C5.07098 28.9569 5.17494 29.1884 5.32857 29.3859C5.48219 29.5834 5.68099 29.7411 5.90824 29.8457C6.11304 29.9415 6.33646 29.9908 6.56254 29.9902C6.83679 29.9903 7.10623 29.9183 7.34379 29.7812L19.5313 22.7402ZM17.1875 9.69141V20.4844L7.83598 25.8809C7.81254 25.5859 7.81254 25.2891 7.81254 25C7.81531 21.8327 8.69202 18.7277 10.3461 16.0266C12.0002 13.3256 14.3676 11.1334 17.1875 9.69141ZM45.3125 25C45.3141 29.4592 43.8482 33.7951 41.141 37.3385C38.4339 40.882 34.6359 43.4361 30.3331 44.6069C26.0303 45.7777 21.4619 45.5 17.3325 43.8168C13.2032 42.1335 9.7425 39.1382 7.48442 35.293C7.37915 35.1154 7.31013 34.9186 7.28134 34.7142C7.25255 34.5098 7.26457 34.3016 7.31669 34.1019C7.36881 33.9021 7.46001 33.7146 7.58501 33.5503C7.71002 33.386 7.86634 33.2481 8.04496 33.1445L23.4375 24.1855V6.25C23.4375 5.8356 23.6022 5.43817 23.8952 5.14515C24.1882 4.85212 24.5856 4.6875 25 4.6875C28.5447 4.68931 32.0273 5.61823 35.1019 7.38204C38.1766 9.14586 40.7365 11.6832 42.5274 14.7422C42.5489 14.7734 42.5684 14.8047 42.5879 14.8379C42.6075 14.8711 42.627 14.9102 42.6446 14.9453C44.3972 18.0062 45.317 21.4729 45.3125 25Z" fill="url(#paint0_linear_42_1176)"/>
<defs>
<linearGradient id="paint0_linear_42_1176" x1="-0.523379" y1="-7.16353" x2="54.2747" y2="-2.60094" gradientUnits="userSpaceOnUse">
<stop stop-color="#FFA1A1"/>
<stop offset="1" stop-color="#EBAB08" stop-opacity="0.78"/>
</linearGradient>
</defs>
</svg>
