<svg width="50" height="50" viewBox="0 0 50 50" fill="none" xmlns="http://www.w3.org/2000/svg">
<path d="M16.4062 10.1562V17.9688H5.46875C5.26155 17.9688 5.06284 17.8864 4.91632 17.7399C4.76981 17.5934 4.6875 17.3947 4.6875 17.1875V12.5C4.6875 11.6712 5.01674 10.8763 5.60279 10.2903C6.18884 9.70424 6.9837 9.375 7.8125 9.375H15.625C15.8322 9.375 16.0309 9.45731 16.1774 9.60382C16.3239 9.75034 16.4062 9.94905 16.4062 10.1562ZM19.5312 39.8438C19.5312 40.051 19.6136 40.2497 19.7601 40.3962C19.9066 40.5427 20.1053 40.625 20.3125 40.625H29.6875C29.8947 40.625 30.0934 40.5427 30.2399 40.3962C30.3864 40.2497 30.4688 40.051 30.4688 39.8438V32.0312H19.5312V39.8438ZM4.6875 32.8125V37.5C4.6875 38.3288 5.01674 39.1237 5.60279 39.7097C6.18884 40.2958 6.9837 40.625 7.8125 40.625H15.625C15.8322 40.625 16.0309 40.5427 16.1774 40.3962C16.3239 40.2497 16.4062 40.051 16.4062 39.8438V32.0312H5.46875C5.26155 32.0312 5.06284 32.1136 4.91632 32.2601C4.76981 32.4066 4.6875 32.6053 4.6875 32.8125ZM4.6875 21.875V28.125C4.6875 28.3322 4.76981 28.5309 4.91632 28.6774C5.06284 28.8239 5.26155 28.9062 5.46875 28.9062H16.4062V21.0938H5.46875C5.26155 21.0938 5.06284 21.1761 4.91632 21.3226C4.76981 21.4691 4.6875 21.6678 4.6875 21.875ZM29.6875 9.375H20.3125C20.1053 9.375 19.9066 9.45731 19.7601 9.60382C19.6136 9.75034 19.5312 9.94905 19.5312 10.1562V17.9688H30.4688V10.1562C30.4688 9.94905 30.3864 9.75034 30.2399 9.60382C30.0934 9.45731 29.8947 9.375 29.6875 9.375ZM44.5312 21.0938H33.5938V28.9062H44.5312C44.7384 28.9062 44.9372 28.8239 45.0837 28.6774C45.2302 28.5309 45.3125 28.3322 45.3125 28.125V21.875C45.3125 21.6678 45.2302 21.4691 45.0837 21.3226C44.9372 21.1761 44.7384 21.0938 44.5312 21.0938ZM19.5312 28.9062H30.4688V21.0938H19.5312V28.9062ZM42.1875 9.375H34.375C34.1678 9.375 33.9691 9.45731 33.8226 9.60382C33.6761 9.75034 33.5938 9.94905 33.5938 10.1562V17.9688H44.5312C44.7384 17.9688 44.9372 17.8864 45.0837 17.7399C45.2302 17.5934 45.3125 17.3947 45.3125 17.1875V12.5C45.3125 11.6712 44.9833 10.8763 44.3972 10.2903C43.8112 9.70424 43.0163 9.375 42.1875 9.375ZM44.5312 32.0312H33.5938V39.8438C33.5938 40.051 33.6761 40.2497 33.8226 40.3962C33.9691 40.5427 34.1678 40.625 34.375 40.625H42.1875C43.0163 40.625 43.8112 40.2958 44.3972 39.7097C44.9833 39.1237 45.3125 38.3288 45.3125 37.5V32.8125C45.3125 32.6053 45.2302 32.4066 45.0837 32.2601C44.9372 32.1136 44.7384 32.0312 44.5312 32.0312Z" fill="url(#paint0_linear_42_1166)"/>
<defs>
<linearGradient id="paint0_linear_42_1166" x1="-0.523096" y1="0.260401" x2="54.0153" y2="6.16464" gradientUnits="userSpaceOnUse">
<stop stop-color="#FFA1A1"/>
<stop offset="1" stop-color="#EBAB08" stop-opacity="0.78"/>
</linearGradient>
</defs>
</svg>
