<svg width="50" height="50" viewBox="0 0 50 50" fill="none" xmlns="http://www.w3.org/2000/svg">
<path d="M39.0625 25C39.0642 28.1895 37.9769 31.284 35.9805 33.7715L16.2285 14.0195C18.296 12.3648 20.7889 11.3279 23.42 11.0283C26.0512 10.7287 28.7134 11.1787 31.0999 12.3263C33.4864 13.4739 35.5001 15.2726 36.9089 17.5149C38.3177 19.7572 39.0642 22.3519 39.0625 25ZM10.9375 25C10.9358 27.6481 11.6823 30.2429 13.0911 32.4851C14.4999 34.7274 16.5136 36.5261 18.9001 37.6737C21.2866 38.8213 23.9489 39.2713 26.58 38.9717C29.2111 38.6721 31.704 37.6352 33.7715 35.9805L14.0195 16.2285C12.0231 18.716 10.9358 21.8105 10.9375 25ZM46.0938 25C46.0938 29.1719 44.8566 33.2502 42.5388 36.7191C40.221 40.1879 36.9266 42.8915 33.0722 44.4881C29.2179 46.0846 24.9766 46.5023 20.8848 45.6884C16.793 44.8745 13.0345 42.8655 10.0845 39.9155C7.13446 36.9655 5.12548 33.207 4.31157 29.1152C3.49766 25.0234 3.91539 20.7822 5.51193 16.9278C7.10846 13.0734 9.8121 9.779 13.2809 7.46119C16.7498 5.14338 20.8281 3.90625 25 3.90625C30.5925 3.91245 35.9542 6.13682 39.9087 10.0913C43.8632 14.0458 46.0876 19.4075 46.0938 25ZM42.1875 25C42.1875 21.6006 41.1795 18.2776 39.2909 15.4511C37.4023 12.6247 34.718 10.4217 31.5774 9.12082C28.4368 7.81994 24.9809 7.47957 21.6469 8.14275C18.3128 8.80594 15.2503 10.4429 12.8466 12.8466C10.4429 15.2503 8.80595 18.3128 8.14276 21.6469C7.47958 24.9809 7.81995 28.4368 9.12083 31.5774C10.4217 34.718 12.6247 37.4023 15.4511 39.2909C18.2776 41.1795 21.6006 42.1875 25 42.1875C29.5568 42.1823 33.9255 40.3699 37.1477 37.1477C40.3699 33.9255 42.1823 29.5568 42.1875 25Z" fill="url(#paint0_linear_42_1174)"/>
<defs>
<linearGradient id="paint0_linear_42_1174" x1="-1.50475" y1="-8.39846" x2="55.4004" y2="-3.65964" gradientUnits="userSpaceOnUse">
<stop stop-color="#FFA1A1"/>
<stop offset="1" stop-color="#EBAB08" stop-opacity="0.78"/>
</linearGradient>
</defs>
</svg>
