<svg width="50" height="50" viewBox="0 0 50 50" fill="none" xmlns="http://www.w3.org/2000/svg">
<path d="M25 4.6875C20.9826 4.6875 17.0554 5.87881 13.715 8.11077C10.3746 10.3427 7.77111 13.5151 6.23371 17.2267C4.6963 20.9384 4.29405 25.0225 5.07781 28.9628C5.86157 32.903 7.79615 36.5224 10.6369 39.3631C13.4777 42.2039 17.097 44.1384 21.0372 44.9222C24.9775 45.706 29.0616 45.3037 32.7733 43.7663C36.4849 42.2289 39.6573 39.6254 41.8892 36.285C44.1212 32.9446 45.3125 29.0174 45.3125 25C45.3068 19.6145 43.1649 14.4513 39.3568 10.6432C35.5487 6.83507 30.3855 4.69319 25 4.6875ZM17.9688 18.75C18.4323 18.75 18.8854 18.8875 19.2709 19.145C19.6563 19.4025 19.9567 19.7686 20.1341 20.1968C20.3115 20.6251 20.3579 21.0963 20.2675 21.551C20.177 22.0056 19.9538 22.4233 19.626 22.751C19.2983 23.0788 18.8806 23.302 18.426 23.3925C17.9714 23.4829 17.5001 23.4365 17.0718 23.2591C16.6436 23.0817 16.2775 22.7813 16.02 22.3959C15.7625 22.0104 15.625 21.5573 15.625 21.0938C15.625 20.4721 15.8719 19.876 16.3115 19.4365C16.751 18.9969 17.3472 18.75 17.9688 18.75ZM34.1641 30.4688C32.1543 33.9434 28.8145 35.9375 25 35.9375C21.1856 35.9375 17.8457 33.9453 15.8359 30.4688C15.7229 30.2909 15.647 30.092 15.6128 29.8841C15.5786 29.6762 15.5868 29.4635 15.6369 29.2588C15.6871 29.0541 15.7781 28.8617 15.9045 28.6931C16.0309 28.5245 16.1902 28.3832 16.3726 28.2777C16.5551 28.1723 16.757 28.1048 16.9662 28.0794C17.1753 28.054 17.3875 28.0712 17.5899 28.1299C17.7923 28.1886 17.9807 28.2876 18.1438 28.4211C18.307 28.5545 18.4414 28.7195 18.5391 28.9062C19.9981 31.4277 22.291 32.8125 25 32.8125C27.709 32.8125 30.002 31.4258 31.4609 28.9062C31.5586 28.7195 31.6931 28.5545 31.8562 28.4211C32.0193 28.2876 32.2077 28.1886 32.4101 28.1299C32.6125 28.0712 32.8247 28.054 33.0339 28.0794C33.2431 28.1048 33.445 28.1723 33.6274 28.2777C33.8098 28.3832 33.9691 28.5245 34.0955 28.6931C34.2219 28.8617 34.313 29.0541 34.3631 29.2588C34.4132 29.4635 34.4214 29.6762 34.3872 29.8841C34.353 30.092 34.2771 30.2909 34.1641 30.4688ZM32.0313 23.4375C31.5677 23.4375 31.1146 23.3 30.7291 23.0425C30.3437 22.785 30.0433 22.4189 29.8659 21.9907C29.6885 21.5624 29.6421 21.0912 29.7325 20.6365C29.823 20.1819 30.0462 19.7642 30.374 19.4365C30.7018 19.1087 31.1194 18.8855 31.574 18.795C32.0287 18.7046 32.4999 18.751 32.9282 18.9284C33.3564 19.1058 33.7225 19.4062 33.98 19.7916C34.2375 20.1771 34.375 20.6302 34.375 21.0938C34.375 21.7154 34.1281 22.3115 33.6885 22.751C33.249 23.1906 32.6529 23.4375 32.0313 23.4375Z" fill="url(#paint0_linear_42_1178)"/>
<defs>
<linearGradient id="paint0_linear_42_1178" x1="-0.523097" y1="-7.16148" x2="54.2744" y2="-2.59817" gradientUnits="userSpaceOnUse">
<stop stop-color="#FFA1A1"/>
<stop offset="1" stop-color="#EBAB08" stop-opacity="0.78"/>
</linearGradient>
</defs>
</svg>
