<svg width="50" height="50" viewBox="0 0 50 50" fill="none" xmlns="http://www.w3.org/2000/svg">
<path d="M45 42.8105C45.1747 43.0426 45.2812 43.3189 45.3075 43.6082C45.3339 43.8975 45.2791 44.1884 45.1492 44.4483C45.0194 44.7082 44.8197 44.9267 44.5725 45.0793C44.3253 45.232 44.0405 45.3127 43.75 45.3124H6.25C5.95983 45.3124 5.67538 45.2316 5.42855 45.0791C5.18171 44.9265 4.98223 44.7083 4.85246 44.4487C4.72269 44.1892 4.66775 43.8986 4.69381 43.6096C4.71987 43.3206 4.8259 43.0446 5 42.8124C6.38356 40.9575 8.22856 39.497 10.3516 38.5761C9.18785 37.514 8.37245 36.1249 8.0124 34.591C7.65235 33.0572 7.76447 31.4503 8.33405 29.9813C8.90362 28.5124 9.90403 27.2499 11.204 26.3597C12.5039 25.4695 14.0426 24.9932 15.6182 24.9932C17.1937 24.9932 18.7324 25.4695 20.0324 26.3597C21.3323 27.2499 22.3327 28.5124 22.9023 29.9813C23.4719 31.4503 23.584 33.0572 23.2239 34.591C22.8639 36.1249 22.0485 37.514 20.8848 38.5761C22.4164 39.2382 23.8083 40.1853 24.9863 41.3671C26.1643 40.1853 27.5562 39.2382 29.0879 38.5761C27.9242 37.514 27.1088 36.1249 26.7487 34.591C26.3887 33.0572 26.5008 31.4503 27.0704 29.9813C27.6399 28.5124 28.6404 27.2499 29.9403 26.3597C31.2402 25.4695 32.779 24.9932 34.3545 24.9932C35.93 24.9932 37.4687 25.4695 38.7687 26.3597C40.0686 27.2499 41.069 28.5124 41.6386 29.9813C42.2082 31.4503 42.3203 33.0572 41.9603 34.591C41.6002 36.1249 40.7848 37.514 39.6211 38.5761C41.754 39.4921 43.6088 40.9523 45 42.8105ZM5.3125 24.6874C5.47665 24.8106 5.66345 24.9001 5.86222 24.9511C6.06099 25.002 6.26784 25.0133 6.47097 24.9842C6.6741 24.9552 6.86952 24.8865 7.04608 24.7819C7.22265 24.6774 7.37689 24.5391 7.5 24.3749C8.44603 23.1136 9.67274 22.0898 11.083 21.3847C12.4932 20.6795 14.0483 20.3124 15.625 20.3124C17.2017 20.3124 18.7568 20.6795 20.167 21.3847C21.5773 22.0898 22.804 23.1136 23.75 24.3749C23.8955 24.569 24.0843 24.7265 24.3012 24.835C24.5182 24.9435 24.7574 24.9999 25 24.9999C25.2426 24.9999 25.4818 24.9435 25.6988 24.835C25.9157 24.7265 26.1045 24.569 26.25 24.3749C27.196 23.1136 28.4227 22.0898 29.833 21.3847C31.2432 20.6795 32.7983 20.3124 34.375 20.3124C35.9517 20.3124 37.5068 20.6795 38.917 21.3847C40.3273 22.0898 41.554 23.1136 42.5 24.3749C42.6232 24.5391 42.7776 24.6774 42.9543 24.7819C43.131 24.8864 43.3265 24.955 43.5297 24.984C43.7329 25.0129 43.9399 25.0015 44.1387 24.9505C44.3375 24.8994 44.5243 24.8097 44.6885 24.6865C44.8526 24.5632 44.9909 24.4089 45.0954 24.2322C45.1999 24.0555 45.2686 23.86 45.2975 23.6567C45.3264 23.4535 45.315 23.2466 45.264 23.0478C45.2129 22.849 45.1232 22.6621 45 22.498C43.6164 20.6436 41.7714 19.1837 39.6484 18.2636C40.8122 17.2015 41.6276 15.8124 41.9876 14.2785C42.3477 12.7447 42.2355 11.1378 41.666 9.66885C41.0964 8.19987 40.096 6.93743 38.796 6.04723C37.4961 5.15703 35.9574 4.68066 34.3818 4.68066C32.8063 4.68066 31.2676 5.15703 29.9676 6.04723C28.6677 6.93743 27.6673 8.19987 27.0977 9.66885C26.5281 11.1378 26.416 12.7447 26.7761 14.2785C27.1361 15.8124 27.9515 17.2015 29.1152 18.2636C27.5836 18.9257 26.1917 19.8728 25.0137 21.0546C23.8357 19.8728 22.4438 18.9257 20.9121 18.2636C22.0758 17.2015 22.8912 15.8124 23.2513 14.2785C23.6113 12.7447 23.4992 11.1378 22.9296 9.66885C22.3601 8.19987 21.3596 6.93743 20.0597 6.04723C18.7598 5.15703 17.221 4.68066 15.6455 4.68066C14.07 4.68066 12.5313 5.15703 11.2313 6.04723C9.93138 6.93743 8.93096 8.19987 8.36139 9.66885C7.79181 11.1378 7.67969 12.7447 8.03974 14.2785C8.3998 15.8124 9.21519 17.2015 10.3789 18.2636C8.24594 19.1804 6.39112 20.6412 5 22.4999C4.87689 22.6641 4.78731 22.8509 4.73639 23.0497C4.68546 23.2484 4.67419 23.4553 4.7032 23.6584C4.73222 23.8615 4.80097 24.057 4.90551 24.2335C5.01005 24.4101 5.14835 24.5643 5.3125 24.6874Z" fill="url(#paint0_linear_42_1172)"/>
<defs>
<linearGradient id="paint0_linear_42_1172" x1="-0.523284" y1="-7.17029" x2="54.2763" y2="-2.60741" gradientUnits="userSpaceOnUse">
<stop stop-color="#FFA1A1"/>
<stop offset="1" stop-color="#EBAB08" stop-opacity="0.78"/>
</linearGradient>
</defs>
</svg>
