<svg width="1341" height="637" viewBox="0 0 1341 637" fill="none" xmlns="http://www.w3.org/2000/svg">
<g clip-path="url(#clip0_63_29)">
<path d="M2452 -155.5C1562.5 47.5 -344 120.5 -986.5 -137.5C-986.5 106.454 -986.5 382.864 -986.5 756C-562 599.5 1326.5 520 2452 741.5V-155.5Z" fill="#F5F0F0"/>
<path fill-rule="evenodd" clip-rule="evenodd" d="M1261.9 75.7907C1266.81 75.7907 1270.79 71.8081 1270.79 66.8953C1270.79 61.9826 1266.81 58 1261.9 58C1256.98 58 1253 61.9826 1253 66.8953C1253 71.8081 1256.98 75.7907 1261.9 75.7907ZM1261.9 107.814C1266.81 107.814 1270.79 103.831 1270.79 98.9186C1270.79 94.0058 1266.81 90.0233 1261.9 90.0233C1256.98 90.0233 1253 94.0058 1253 98.9186C1253 103.831 1256.98 107.814 1261.9 107.814ZM1270.79 130.942C1270.79 135.855 1266.81 139.837 1261.9 139.837C1256.98 139.837 1253 135.855 1253 130.942C1253 126.029 1256.98 122.047 1261.9 122.047C1266.81 122.047 1270.79 126.029 1270.79 130.942ZM1261.9 171.86C1266.81 171.86 1270.79 167.878 1270.79 162.965C1270.79 158.052 1266.81 154.07 1261.9 154.07C1256.98 154.07 1253 158.052 1253 162.965C1253 167.878 1256.98 171.86 1261.9 171.86ZM1270.79 194.988C1270.79 199.901 1266.81 203.884 1261.9 203.884C1256.98 203.884 1253 199.901 1253 194.988C1253 190.076 1256.98 186.093 1261.9 186.093C1266.81 186.093 1270.79 190.076 1270.79 194.988ZM1293.92 75.7907C1298.83 75.7907 1302.81 71.8081 1302.81 66.8953C1302.81 61.9826 1298.83 58 1293.92 58C1289.01 58 1285.02 61.9826 1285.02 66.8953C1285.02 71.8081 1289.01 75.7907 1293.92 75.7907ZM1302.81 98.9186C1302.81 103.831 1298.83 107.814 1293.92 107.814C1289.01 107.814 1285.02 103.831 1285.02 98.9186C1285.02 94.0058 1289.01 90.0233 1293.92 90.0233C1298.83 90.0233 1302.81 94.0058 1302.81 98.9186ZM1293.92 139.837C1298.83 139.837 1302.81 135.855 1302.81 130.942C1302.81 126.029 1298.83 122.047 1293.92 122.047C1289.01 122.047 1285.02 126.029 1285.02 130.942C1285.02 135.855 1289.01 139.837 1293.92 139.837ZM1302.81 162.965C1302.81 167.878 1298.83 171.86 1293.92 171.86C1289.01 171.86 1285.02 167.878 1285.02 162.965C1285.02 158.052 1289.01 154.07 1293.92 154.07C1298.83 154.07 1302.81 158.052 1302.81 162.965ZM1293.92 203.884C1298.83 203.884 1302.81 199.901 1302.81 194.988C1302.81 190.076 1298.83 186.093 1293.92 186.093C1289.01 186.093 1285.02 190.076 1285.02 194.988C1285.02 199.901 1289.01 203.884 1293.92 203.884ZM1334.84 66.8953C1334.84 71.8081 1330.85 75.7907 1325.94 75.7907C1321.03 75.7907 1317.05 71.8081 1317.05 66.8953C1317.05 61.9826 1321.03 58 1325.94 58C1330.85 58 1334.84 61.9826 1334.84 66.8953ZM1325.94 107.814C1330.85 107.814 1334.84 103.831 1334.84 98.9186C1334.84 94.0058 1330.85 90.0233 1325.94 90.0233C1321.03 90.0233 1317.05 94.0058 1317.05 98.9186C1317.05 103.831 1321.03 107.814 1325.94 107.814ZM1334.84 130.942C1334.84 135.855 1330.85 139.837 1325.94 139.837C1321.03 139.837 1317.05 135.855 1317.05 130.942C1317.05 126.029 1321.03 122.047 1325.94 122.047C1330.85 122.047 1334.84 126.029 1334.84 130.942ZM1325.94 171.86C1330.85 171.86 1334.84 167.878 1334.84 162.965C1334.84 158.052 1330.85 154.07 1325.94 154.07C1321.03 154.07 1317.05 158.052 1317.05 162.965C1317.05 167.878 1321.03 171.86 1325.94 171.86ZM1334.84 194.988C1334.84 199.901 1330.85 203.884 1325.94 203.884C1321.03 203.884 1317.05 199.901 1317.05 194.988C1317.05 190.076 1321.03 186.093 1325.94 186.093C1330.85 186.093 1334.84 190.076 1334.84 194.988ZM1357.97 75.7907C1362.88 75.7907 1366.86 71.8081 1366.86 66.8953C1366.86 61.9826 1362.88 58 1357.97 58C1353.05 58 1349.07 61.9826 1349.07 66.8953C1349.07 71.8081 1353.05 75.7907 1357.97 75.7907ZM1366.86 98.9186C1366.86 103.831 1362.88 107.814 1357.97 107.814C1353.05 107.814 1349.07 103.831 1349.07 98.9186C1349.07 94.0058 1353.05 90.0233 1357.97 90.0233C1362.88 90.0233 1366.86 94.0058 1366.86 98.9186ZM1357.97 139.837C1362.88 139.837 1366.86 135.855 1366.86 130.942C1366.86 126.029 1362.88 122.047 1357.97 122.047C1353.05 122.047 1349.07 126.029 1349.07 130.942C1349.07 135.855 1353.05 139.837 1357.97 139.837ZM1366.86 162.965C1366.86 167.878 1362.88 171.86 1357.97 171.86C1353.05 171.86 1349.07 167.878 1349.07 162.965C1349.07 158.052 1353.05 154.07 1357.97 154.07C1362.88 154.07 1366.86 158.052 1366.86 162.965ZM1357.97 203.884C1362.88 203.884 1366.86 199.901 1366.86 194.988C1366.86 190.076 1362.88 186.093 1357.97 186.093C1353.05 186.093 1349.07 190.076 1349.07 194.988C1349.07 199.901 1353.05 203.884 1357.97 203.884ZM1398.88 66.8953C1398.88 71.8081 1394.9 75.7907 1389.99 75.7907C1385.08 75.7907 1381.09 71.8081 1381.09 66.8953C1381.09 61.9826 1385.08 58 1389.99 58C1394.9 58 1398.88 61.9826 1398.88 66.8953ZM1389.99 107.814C1394.9 107.814 1398.88 103.831 1398.88 98.9186C1398.88 94.0058 1394.9 90.0233 1389.99 90.0233C1385.08 90.0233 1381.09 94.0058 1381.09 98.9186C1381.09 103.831 1385.08 107.814 1389.99 107.814ZM1398.88 130.942C1398.88 135.855 1394.9 139.837 1389.99 139.837C1385.08 139.837 1381.09 135.855 1381.09 130.942C1381.09 126.029 1385.08 122.047 1389.99 122.047C1394.9 122.047 1398.88 126.029 1398.88 130.942ZM1389.99 171.86C1394.9 171.86 1398.88 167.878 1398.88 162.965C1398.88 158.052 1394.9 154.07 1389.99 154.07C1385.08 154.07 1381.09 158.052 1381.09 162.965C1381.09 167.878 1385.08 171.86 1389.99 171.86ZM1398.88 194.988C1398.88 199.901 1394.9 203.884 1389.99 203.884C1385.08 203.884 1381.09 199.901 1381.09 194.988C1381.09 190.076 1385.08 186.093 1389.99 186.093C1394.9 186.093 1398.88 190.076 1398.88 194.988ZM1261.9 235.907C1266.81 235.907 1270.79 231.924 1270.79 227.012C1270.79 222.099 1266.81 218.116 1261.9 218.116C1256.98 218.116 1253 222.099 1253 227.012C1253 231.924 1256.98 235.907 1261.9 235.907ZM1261.9 267.93C1266.81 267.93 1270.79 263.948 1270.79 259.035C1270.79 254.122 1266.81 250.14 1261.9 250.14C1256.98 250.14 1253 254.122 1253 259.035C1253 263.948 1256.98 267.93 1261.9 267.93ZM1270.79 291.058C1270.79 295.971 1266.81 299.953 1261.9 299.953C1256.98 299.953 1253 295.971 1253 291.058C1253 286.145 1256.98 282.163 1261.9 282.163C1266.81 282.163 1270.79 286.145 1270.79 291.058ZM1261.9 331.977C1266.81 331.977 1270.79 327.994 1270.79 323.081C1270.79 318.169 1266.81 314.186 1261.9 314.186C1256.98 314.186 1253 318.169 1253 323.081C1253 327.994 1256.98 331.977 1261.9 331.977ZM1270.79 355.105C1270.79 360.017 1266.81 364 1261.9 364C1256.98 364 1253 360.017 1253 355.105C1253 350.192 1256.98 346.209 1261.9 346.209C1266.81 346.209 1270.79 350.192 1270.79 355.105ZM1293.92 235.907C1298.83 235.907 1302.81 231.924 1302.81 227.012C1302.81 222.099 1298.83 218.116 1293.92 218.116C1289.01 218.116 1285.02 222.099 1285.02 227.012C1285.02 231.924 1289.01 235.907 1293.92 235.907ZM1302.81 259.035C1302.81 263.948 1298.83 267.93 1293.92 267.93C1289.01 267.93 1285.02 263.948 1285.02 259.035C1285.02 254.122 1289.01 250.14 1293.92 250.14C1298.83 250.14 1302.81 254.122 1302.81 259.035ZM1293.92 299.953C1298.83 299.953 1302.81 295.971 1302.81 291.058C1302.81 286.145 1298.83 282.163 1293.92 282.163C1289.01 282.163 1285.02 286.145 1285.02 291.058C1285.02 295.971 1289.01 299.953 1293.92 299.953ZM1302.81 323.081C1302.81 327.994 1298.83 331.977 1293.92 331.977C1289.01 331.977 1285.02 327.994 1285.02 323.081C1285.02 318.169 1289.01 314.186 1293.92 314.186C1298.83 314.186 1302.81 318.169 1302.81 323.081ZM1293.92 364C1298.83 364 1302.81 360.017 1302.81 355.105C1302.81 350.192 1298.83 346.209 1293.92 346.209C1289.01 346.209 1285.02 350.192 1285.02 355.105C1285.02 360.017 1289.01 364 1293.92 364ZM1334.84 227.012C1334.84 231.924 1330.85 235.907 1325.94 235.907C1321.03 235.907 1317.05 231.924 1317.05 227.012C1317.05 222.099 1321.03 218.116 1325.94 218.116C1330.85 218.116 1334.84 222.099 1334.84 227.012ZM1325.94 267.93C1330.85 267.93 1334.84 263.948 1334.84 259.035C1334.84 254.122 1330.85 250.14 1325.94 250.14C1321.03 250.14 1317.05 254.122 1317.05 259.035C1317.05 263.948 1321.03 267.93 1325.94 267.93ZM1334.84 291.058C1334.84 295.971 1330.85 299.953 1325.94 299.953C1321.03 299.953 1317.05 295.971 1317.05 291.058C1317.05 286.145 1321.03 282.163 1325.94 282.163C1330.85 282.163 1334.84 286.145 1334.84 291.058ZM1325.94 331.977C1330.85 331.977 1334.84 327.994 1334.84 323.081C1334.84 318.169 1330.85 314.186 1325.94 314.186C1321.03 314.186 1317.05 318.169 1317.05 323.081C1317.05 327.994 1321.03 331.977 1325.94 331.977ZM1334.84 355.105C1334.84 360.017 1330.85 364 1325.94 364C1321.03 364 1317.05 360.017 1317.05 355.105C1317.05 350.192 1321.03 346.209 1325.94 346.209C1330.85 346.209 1334.84 350.192 1334.84 355.105ZM1357.97 235.907C1362.88 235.907 1366.86 231.924 1366.86 227.012C1366.86 222.099 1362.88 218.116 1357.97 218.116C1353.05 218.116 1349.07 222.099 1349.07 227.012C1349.07 231.924 1353.05 235.907 1357.97 235.907ZM1366.86 259.035C1366.86 263.948 1362.88 267.93 1357.97 267.93C1353.05 267.93 1349.07 263.948 1349.07 259.035C1349.07 254.122 1353.05 250.14 1357.97 250.14C1362.88 250.14 1366.86 254.122 1366.86 259.035ZM1357.97 299.953C1362.88 299.953 1366.86 295.971 1366.86 291.058C1366.86 286.145 1362.88 282.163 1357.97 282.163C1353.05 282.163 1349.07 286.145 1349.07 291.058C1349.07 295.971 1353.05 299.953 1357.97 299.953ZM1366.86 323.081C1366.86 327.994 1362.88 331.977 1357.97 331.977C1353.05 331.977 1349.07 327.994 1349.07 323.081C1349.07 318.169 1353.05 314.186 1357.97 314.186C1362.88 314.186 1366.86 318.169 1366.86 323.081ZM1357.97 364C1362.88 364 1366.86 360.017 1366.86 355.105C1366.86 350.192 1362.88 346.209 1357.97 346.209C1353.05 346.209 1349.07 350.192 1349.07 355.105C1349.07 360.017 1353.05 364 1357.97 364ZM1398.88 227.012C1398.88 231.924 1394.9 235.907 1389.99 235.907C1385.08 235.907 1381.09 231.924 1381.09 227.012C1381.09 222.099 1385.08 218.116 1389.99 218.116C1394.9 218.116 1398.88 222.099 1398.88 227.012ZM1389.99 267.93C1394.9 267.93 1398.88 263.948 1398.88 259.035C1398.88 254.122 1394.9 250.14 1389.99 250.14C1385.08 250.14 1381.09 254.122 1381.09 259.035C1381.09 263.948 1385.08 267.93 1389.99 267.93ZM1398.88 291.058C1398.88 295.971 1394.9 299.953 1389.99 299.953C1385.08 299.953 1381.09 295.971 1381.09 291.058C1381.09 286.145 1385.08 282.163 1389.99 282.163C1394.9 282.163 1398.88 286.145 1398.88 291.058ZM1389.99 331.977C1394.9 331.977 1398.88 327.994 1398.88 323.081C1398.88 318.169 1394.9 314.186 1389.99 314.186C1385.08 314.186 1381.09 318.169 1381.09 323.081C1381.09 327.994 1385.08 331.977 1389.99 331.977ZM1398.88 355.105C1398.88 360.017 1394.9 364 1389.99 364C1385.08 364 1381.09 360.017 1381.09 355.105C1381.09 350.192 1385.08 346.209 1389.99 346.209C1394.9 346.209 1398.88 350.192 1398.88 355.105ZM1430.91 227.012C1430.91 231.924 1426.92 235.907 1422.01 235.907C1417.1 235.907 1413.12 231.924 1413.12 227.012C1413.12 222.099 1417.1 218.116 1422.01 218.116C1426.92 218.116 1430.91 222.099 1430.91 227.012ZM1430.91 259.035C1430.91 263.948 1426.92 267.93 1422.01 267.93C1417.1 267.93 1413.12 263.948 1413.12 259.035C1413.12 254.122 1417.1 250.14 1422.01 250.14C1426.92 250.14 1430.91 254.122 1430.91 259.035ZM1422.01 299.953C1426.92 299.953 1430.91 295.971 1430.91 291.058C1430.91 286.145 1426.92 282.163 1422.01 282.163C1417.1 282.163 1413.12 286.145 1413.12 291.058C1413.12 295.971 1417.1 299.953 1422.01 299.953ZM1430.91 323.081C1430.91 327.994 1426.92 331.977 1422.01 331.977C1417.1 331.977 1413.12 327.994 1413.12 323.081C1413.12 318.169 1417.1 314.186 1422.01 314.186C1426.92 314.186 1430.91 318.169 1430.91 323.081ZM1422.01 364C1426.92 364 1430.91 360.017 1430.91 355.105C1430.91 350.192 1426.92 346.209 1422.01 346.209C1417.1 346.209 1413.12 350.192 1413.12 355.105C1413.12 360.017 1417.1 364 1422.01 364ZM1462.93 227.012C1462.93 231.924 1458.95 235.907 1454.03 235.907C1449.12 235.907 1445.14 231.924 1445.14 227.012C1445.14 222.099 1449.12 218.116 1454.03 218.116C1458.95 218.116 1462.93 222.099 1462.93 227.012ZM1454.03 267.93C1458.95 267.93 1462.93 263.948 1462.93 259.035C1462.93 254.122 1458.95 250.14 1454.03 250.14C1449.12 250.14 1445.14 254.122 1445.14 259.035C1445.14 263.948 1449.12 267.93 1454.03 267.93ZM1462.93 291.058C1462.93 295.971 1458.95 299.953 1454.03 299.953C1449.12 299.953 1445.14 295.971 1445.14 291.058C1445.14 286.145 1449.12 282.163 1454.03 282.163C1458.95 282.163 1462.93 286.145 1462.93 291.058ZM1454.03 331.977C1458.95 331.977 1462.93 327.994 1462.93 323.081C1462.93 318.169 1458.95 314.186 1454.03 314.186C1449.12 314.186 1445.14 318.169 1445.14 323.081C1445.14 327.994 1449.12 331.977 1454.03 331.977ZM1462.93 355.105C1462.93 360.017 1458.95 364 1454.03 364C1449.12 364 1445.14 360.017 1445.14 355.105C1445.14 350.192 1449.12 346.209 1454.03 346.209C1458.95 346.209 1462.93 350.192 1462.93 355.105ZM1486.06 235.907C1490.97 235.907 1494.95 231.924 1494.95 227.012C1494.95 222.099 1490.97 218.116 1486.06 218.116C1481.15 218.116 1477.16 222.099 1477.16 227.012C1477.16 231.924 1481.15 235.907 1486.06 235.907ZM1494.95 259.035C1494.95 263.948 1490.97 267.93 1486.06 267.93C1481.15 267.93 1477.16 263.948 1477.16 259.035C1477.16 254.122 1481.15 250.14 1486.06 250.14C1490.97 250.14 1494.95 254.122 1494.95 259.035ZM1486.06 299.953C1490.97 299.953 1494.95 295.971 1494.95 291.058C1494.95 286.145 1490.97 282.163 1486.06 282.163C1481.15 282.163 1477.16 286.145 1477.16 291.058C1477.16 295.971 1481.15 299.953 1486.06 299.953ZM1494.95 323.081C1494.95 327.994 1490.97 331.977 1486.06 331.977C1481.15 331.977 1477.16 327.994 1477.16 323.081C1477.16 318.169 1481.15 314.186 1486.06 314.186C1490.97 314.186 1494.95 318.169 1494.95 323.081ZM1486.06 364C1490.97 364 1494.95 360.017 1494.95 355.105C1494.95 350.192 1490.97 346.209 1486.06 346.209C1481.15 346.209 1477.16 350.192 1477.16 355.105C1477.16 360.017 1481.15 364 1486.06 364ZM1526.98 227.012C1526.98 231.924 1522.99 235.907 1518.08 235.907C1513.17 235.907 1509.19 231.924 1509.19 227.012C1509.19 222.099 1513.17 218.116 1518.08 218.116C1522.99 218.116 1526.98 222.099 1526.98 227.012ZM1518.08 267.93C1522.99 267.93 1526.98 263.948 1526.98 259.035C1526.98 254.122 1522.99 250.14 1518.08 250.14C1513.17 250.14 1509.19 254.122 1509.19 259.035C1509.19 263.948 1513.17 267.93 1518.08 267.93ZM1526.98 291.058C1526.98 295.971 1522.99 299.953 1518.08 299.953C1513.17 299.953 1509.19 295.971 1509.19 291.058C1509.19 286.145 1513.17 282.163 1518.08 282.163C1522.99 282.163 1526.98 286.145 1526.98 291.058ZM1518.08 331.977C1522.99 331.977 1526.98 327.994 1526.98 323.081C1526.98 318.169 1522.99 314.186 1518.08 314.186C1513.17 314.186 1509.19 318.169 1509.19 323.081C1509.19 327.994 1513.17 331.977 1518.08 331.977ZM1526.98 355.105C1526.98 360.017 1522.99 364 1518.08 364C1513.17 364 1509.19 360.017 1509.19 355.105C1509.19 350.192 1513.17 346.209 1518.08 346.209C1522.99 346.209 1526.98 350.192 1526.98 355.105ZM1550.1 235.907C1555.02 235.907 1559 231.924 1559 227.012C1559 222.099 1555.02 218.116 1550.1 218.116C1545.19 218.116 1541.21 222.099 1541.21 227.012C1541.21 231.924 1545.19 235.907 1550.1 235.907ZM1559 259.035C1559 263.948 1555.02 267.93 1550.1 267.93C1545.19 267.93 1541.21 263.948 1541.21 259.035C1541.21 254.122 1545.19 250.14 1550.1 250.14C1555.02 250.14 1559 254.122 1559 259.035ZM1550.1 299.953C1555.02 299.953 1559 295.971 1559 291.058C1559 286.145 1555.02 282.163 1550.1 282.163C1545.19 282.163 1541.21 286.145 1541.21 291.058C1541.21 295.971 1545.19 299.953 1550.1 299.953ZM1559 323.081C1559 327.994 1555.02 331.977 1550.1 331.977C1545.19 331.977 1541.21 327.994 1541.21 323.081C1541.21 318.169 1545.19 314.186 1550.1 314.186C1555.02 314.186 1559 318.169 1559 323.081ZM1550.1 364C1555.02 364 1559 360.017 1559 355.105C1559 350.192 1555.02 346.209 1550.1 346.209C1545.19 346.209 1541.21 350.192 1541.21 355.105C1541.21 360.017 1545.19 364 1550.1 364ZM1422.01 75.7907C1426.92 75.7907 1430.91 71.8081 1430.91 66.8953C1430.91 61.9826 1426.92 58 1422.01 58C1417.1 58 1413.12 61.9826 1413.12 66.8953C1413.12 71.8081 1417.1 75.7907 1422.01 75.7907ZM1422.01 107.814C1426.92 107.814 1430.91 103.831 1430.91 98.9186C1430.91 94.0058 1426.92 90.0233 1422.01 90.0233C1417.1 90.0233 1413.12 94.0058 1413.12 98.9186C1413.12 103.831 1417.1 107.814 1422.01 107.814ZM1430.91 130.942C1430.91 135.855 1426.92 139.837 1422.01 139.837C1417.1 139.837 1413.12 135.855 1413.12 130.942C1413.12 126.029 1417.1 122.047 1422.01 122.047C1426.92 122.047 1430.91 126.029 1430.91 130.942ZM1422.01 171.86C1426.92 171.86 1430.91 167.878 1430.91 162.965C1430.91 158.052 1426.92 154.07 1422.01 154.07C1417.1 154.07 1413.12 158.052 1413.12 162.965C1413.12 167.878 1417.1 171.86 1422.01 171.86ZM1430.91 194.988C1430.91 199.901 1426.92 203.884 1422.01 203.884C1417.1 203.884 1413.12 199.901 1413.12 194.988C1413.12 190.076 1417.1 186.093 1422.01 186.093C1426.92 186.093 1430.91 190.076 1430.91 194.988ZM1454.03 75.7907C1458.95 75.7907 1462.93 71.8081 1462.93 66.8953C1462.93 61.9826 1458.95 58 1454.03 58C1449.12 58 1445.14 61.9826 1445.14 66.8953C1445.14 71.8081 1449.12 75.7907 1454.03 75.7907ZM1462.93 98.9186C1462.93 103.831 1458.95 107.814 1454.03 107.814C1449.12 107.814 1445.14 103.831 1445.14 98.9186C1445.14 94.0058 1449.12 90.0233 1454.03 90.0233C1458.95 90.0233 1462.93 94.0058 1462.93 98.9186ZM1454.03 139.837C1458.95 139.837 1462.93 135.855 1462.93 130.942C1462.93 126.029 1458.95 122.047 1454.03 122.047C1449.12 122.047 1445.14 126.029 1445.14 130.942C1445.14 135.855 1449.12 139.837 1454.03 139.837ZM1462.93 162.965C1462.93 167.878 1458.95 171.86 1454.03 171.86C1449.12 171.86 1445.14 167.878 1445.14 162.965C1445.14 158.052 1449.12 154.07 1454.03 154.07C1458.95 154.07 1462.93 158.052 1462.93 162.965ZM1454.03 203.884C1458.95 203.884 1462.93 199.901 1462.93 194.988C1462.93 190.076 1458.95 186.093 1454.03 186.093C1449.12 186.093 1445.14 190.076 1445.14 194.988C1445.14 199.901 1449.12 203.884 1454.03 203.884ZM1494.95 66.8953C1494.95 71.8081 1490.97 75.7907 1486.06 75.7907C1481.15 75.7907 1477.16 71.8081 1477.16 66.8953C1477.16 61.9826 1481.15 58 1486.06 58C1490.97 58 1494.95 61.9826 1494.95 66.8953ZM1486.06 107.814C1490.97 107.814 1494.95 103.831 1494.95 98.9186C1494.95 94.0058 1490.97 90.0233 1486.06 90.0233C1481.15 90.0233 1477.16 94.0058 1477.16 98.9186C1477.16 103.831 1481.15 107.814 1486.06 107.814ZM1494.95 130.942C1494.95 135.855 1490.97 139.837 1486.06 139.837C1481.15 139.837 1477.16 135.855 1477.16 130.942C1477.16 126.029 1481.15 122.047 1486.06 122.047C1490.97 122.047 1494.95 126.029 1494.95 130.942ZM1486.06 171.86C1490.97 171.86 1494.95 167.878 1494.95 162.965C1494.95 158.052 1490.97 154.07 1486.06 154.07C1481.15 154.07 1477.16 158.052 1477.16 162.965C1477.16 167.878 1481.15 171.86 1486.06 171.86ZM1494.95 194.988C1494.95 199.901 1490.97 203.884 1486.06 203.884C1481.15 203.884 1477.16 199.901 1477.16 194.988C1477.16 190.076 1481.15 186.093 1486.06 186.093C1490.97 186.093 1494.95 190.076 1494.95 194.988ZM1518.08 75.7907C1522.99 75.7907 1526.98 71.8081 1526.98 66.8953C1526.98 61.9826 1522.99 58 1518.08 58C1513.17 58 1509.19 61.9826 1509.19 66.8953C1509.19 71.8081 1513.17 75.7907 1518.08 75.7907ZM1526.98 98.9186C1526.98 103.831 1522.99 107.814 1518.08 107.814C1513.17 107.814 1509.19 103.831 1509.19 98.9186C1509.19 94.0058 1513.17 90.0233 1518.08 90.0233C1522.99 90.0233 1526.98 94.0058 1526.98 98.9186ZM1518.08 139.837C1522.99 139.837 1526.98 135.855 1526.98 130.942C1526.98 126.029 1522.99 122.047 1518.08 122.047C1513.17 122.047 1509.19 126.029 1509.19 130.942C1509.19 135.855 1513.17 139.837 1518.08 139.837ZM1526.98 162.965C1526.98 167.878 1522.99 171.86 1518.08 171.86C1513.17 171.86 1509.19 167.878 1509.19 162.965C1509.19 158.052 1513.17 154.07 1518.08 154.07C1522.99 154.07 1526.98 158.052 1526.98 162.965ZM1518.08 203.884C1522.99 203.884 1526.98 199.901 1526.98 194.988C1526.98 190.076 1522.99 186.093 1518.08 186.093C1513.17 186.093 1509.19 190.076 1509.19 194.988C1509.19 199.901 1513.17 203.884 1518.08 203.884ZM1559 66.8953C1559 71.8081 1555.02 75.7907 1550.1 75.7907C1545.19 75.7907 1541.21 71.8081 1541.21 66.8953C1541.21 61.9826 1545.19 58 1550.1 58C1555.02 58 1559 61.9826 1559 66.8953ZM1550.1 107.814C1555.02 107.814 1559 103.831 1559 98.9186C1559 94.0058 1555.02 90.0233 1550.1 90.0233C1545.19 90.0233 1541.21 94.0058 1541.21 98.9186C1541.21 103.831 1545.19 107.814 1550.1 107.814ZM1559 130.942C1559 135.855 1555.02 139.837 1550.1 139.837C1545.19 139.837 1541.21 135.855 1541.21 130.942C1541.21 126.029 1545.19 122.047 1550.1 122.047C1555.02 122.047 1559 126.029 1559 130.942ZM1550.1 171.86C1555.02 171.86 1559 167.878 1559 162.965C1559 158.052 1555.02 154.07 1550.1 154.07C1545.19 154.07 1541.21 158.052 1541.21 162.965C1541.21 167.878 1545.19 171.86 1550.1 171.86ZM1559 194.988C1559 199.901 1555.02 203.884 1550.1 203.884C1545.19 203.884 1541.21 199.901 1541.21 194.988C1541.21 190.076 1545.19 186.093 1550.1 186.093C1555.02 186.093 1559 190.076 1559 194.988Z" fill="#FFF4F4"/>
<path fill-rule="evenodd" clip-rule="evenodd" d="M19.8663 424.733C22.0016 424.733 23.7326 423.002 23.7326 420.866C23.7326 418.731 22.0016 417 19.8663 417C17.731 417 16 418.731 16 420.866C16 423.002 17.731 424.733 19.8663 424.733ZM19.8663 438.651C22.0016 438.651 23.7326 436.92 23.7326 434.785C23.7326 432.65 22.0016 430.919 19.8663 430.919C17.731 430.919 16 432.65 16 434.785C16 436.92 17.731 438.651 19.8663 438.651ZM23.7326 448.703C23.7326 450.839 22.0016 452.57 19.8663 452.57C17.731 452.57 16 450.839 16 448.703C16 446.568 17.731 444.837 19.8663 444.837C22.0016 444.837 23.7326 446.568 23.7326 448.703ZM19.8663 466.488C22.0016 466.488 23.7326 464.757 23.7326 462.622C23.7326 460.487 22.0016 458.756 19.8663 458.756C17.731 458.756 16 460.487 16 462.622C16 464.757 17.731 466.488 19.8663 466.488ZM23.7326 476.541C23.7326 478.676 22.0016 480.407 19.8663 480.407C17.731 480.407 16 478.676 16 476.541C16 474.405 17.731 472.674 19.8663 472.674C22.0016 472.674 23.7326 474.405 23.7326 476.541ZM33.7849 424.733C35.9202 424.733 37.6512 423.002 37.6512 420.866C37.6512 418.731 35.9202 417 33.7849 417C31.6496 417 29.9186 418.731 29.9186 420.866C29.9186 423.002 31.6496 424.733 33.7849 424.733ZM37.6512 434.785C37.6512 436.92 35.9202 438.651 33.7849 438.651C31.6496 438.651 29.9186 436.92 29.9186 434.785C29.9186 432.65 31.6496 430.919 33.7849 430.919C35.9202 430.919 37.6512 432.65 37.6512 434.785ZM33.7849 452.57C35.9202 452.57 37.6512 450.839 37.6512 448.703C37.6512 446.568 35.9202 444.837 33.7849 444.837C31.6496 444.837 29.9186 446.568 29.9186 448.703C29.9186 450.839 31.6496 452.57 33.7849 452.57ZM37.6512 462.622C37.6512 464.757 35.9202 466.488 33.7849 466.488C31.6496 466.488 29.9186 464.757 29.9186 462.622C29.9186 460.487 31.6496 458.756 33.7849 458.756C35.9202 458.756 37.6512 460.487 37.6512 462.622ZM33.7849 480.407C35.9202 480.407 37.6512 478.676 37.6512 476.541C37.6512 474.405 35.9202 472.674 33.7849 472.674C31.6496 472.674 29.9186 474.405 29.9186 476.541C29.9186 478.676 31.6496 480.407 33.7849 480.407ZM51.5698 420.866C51.5698 423.002 49.8388 424.733 47.7035 424.733C45.5682 424.733 43.8372 423.002 43.8372 420.866C43.8372 418.731 45.5682 417 47.7035 417C49.8388 417 51.5698 418.731 51.5698 420.866ZM47.7035 438.651C49.8388 438.651 51.5698 436.92 51.5698 434.785C51.5698 432.65 49.8388 430.919 47.7035 430.919C45.5682 430.919 43.8372 432.65 43.8372 434.785C43.8372 436.92 45.5682 438.651 47.7035 438.651ZM51.5698 448.703C51.5698 450.839 49.8388 452.57 47.7035 452.57C45.5682 452.57 43.8372 450.839 43.8372 448.703C43.8372 446.568 45.5682 444.837 47.7035 444.837C49.8388 444.837 51.5698 446.568 51.5698 448.703ZM47.7035 466.488C49.8388 466.488 51.5698 464.757 51.5698 462.622C51.5698 460.487 49.8388 458.756 47.7035 458.756C45.5682 458.756 43.8372 460.487 43.8372 462.622C43.8372 464.757 45.5682 466.488 47.7035 466.488ZM51.5698 476.541C51.5698 478.676 49.8388 480.407 47.7035 480.407C45.5682 480.407 43.8372 478.676 43.8372 476.541C43.8372 474.405 45.5682 472.674 47.7035 472.674C49.8388 472.674 51.5698 474.405 51.5698 476.541ZM61.6221 424.733C63.7574 424.733 65.4884 423.002 65.4884 420.866C65.4884 418.731 63.7574 417 61.6221 417C59.4868 417 57.7558 418.731 57.7558 420.866C57.7558 423.002 59.4868 424.733 61.6221 424.733ZM65.4884 434.785C65.4884 436.92 63.7574 438.651 61.6221 438.651C59.4868 438.651 57.7558 436.92 57.7558 434.785C57.7558 432.65 59.4868 430.919 61.6221 430.919C63.7574 430.919 65.4884 432.65 65.4884 434.785ZM61.6221 452.57C63.7574 452.57 65.4884 450.839 65.4884 448.703C65.4884 446.568 63.7574 444.837 61.6221 444.837C59.4868 444.837 57.7558 446.568 57.7558 448.703C57.7558 450.839 59.4868 452.57 61.6221 452.57ZM65.4884 462.622C65.4884 464.757 63.7574 466.488 61.6221 466.488C59.4868 466.488 57.7558 464.757 57.7558 462.622C57.7558 460.487 59.4868 458.756 61.6221 458.756C63.7574 458.756 65.4884 460.487 65.4884 462.622ZM61.6221 480.407C63.7574 480.407 65.4884 478.676 65.4884 476.541C65.4884 474.405 63.7574 472.674 61.6221 472.674C59.4868 472.674 57.7558 474.405 57.7558 476.541C57.7558 478.676 59.4868 480.407 61.6221 480.407ZM79.407 420.866C79.407 423.002 77.676 424.733 75.5407 424.733C73.4054 424.733 71.6744 423.002 71.6744 420.866C71.6744 418.731 73.4054 417 75.5407 417C77.676 417 79.407 418.731 79.407 420.866ZM75.5407 438.651C77.676 438.651 79.407 436.92 79.407 434.785C79.407 432.65 77.676 430.919 75.5407 430.919C73.4054 430.919 71.6744 432.65 71.6744 434.785C71.6744 436.92 73.4054 438.651 75.5407 438.651ZM79.407 448.703C79.407 450.839 77.676 452.57 75.5407 452.57C73.4054 452.57 71.6744 450.839 71.6744 448.703C71.6744 446.568 73.4054 444.837 75.5407 444.837C77.676 444.837 79.407 446.568 79.407 448.703ZM75.5407 466.488C77.676 466.488 79.407 464.757 79.407 462.622C79.407 460.487 77.676 458.756 75.5407 458.756C73.4054 458.756 71.6744 460.487 71.6744 462.622C71.6744 464.757 73.4054 466.488 75.5407 466.488ZM79.407 476.541C79.407 478.676 77.676 480.407 75.5407 480.407C73.4054 480.407 71.6744 478.676 71.6744 476.541C71.6744 474.405 73.4054 472.674 75.5407 472.674C77.676 472.674 79.407 474.405 79.407 476.541ZM19.8663 494.326C22.0016 494.326 23.7326 492.595 23.7326 490.459C23.7326 488.324 22.0016 486.593 19.8663 486.593C17.731 486.593 16 488.324 16 490.459C16 492.595 17.731 494.326 19.8663 494.326ZM19.8663 508.244C22.0016 508.244 23.7326 506.513 23.7326 504.378C23.7326 502.243 22.0016 500.512 19.8663 500.512C17.731 500.512 16 502.243 16 504.378C16 506.513 17.731 508.244 19.8663 508.244ZM23.7326 518.297C23.7326 520.432 22.0016 522.163 19.8663 522.163C17.731 522.163 16 520.432 16 518.297C16 516.161 17.731 514.43 19.8663 514.43C22.0016 514.43 23.7326 516.161 23.7326 518.297ZM19.8663 536.081C22.0016 536.081 23.7326 534.35 23.7326 532.215C23.7326 530.08 22.0016 528.349 19.8663 528.349C17.731 528.349 16 530.08 16 532.215C16 534.35 17.731 536.081 19.8663 536.081ZM23.7326 546.134C23.7326 548.269 22.0016 550 19.8663 550C17.731 550 16 548.269 16 546.134C16 543.998 17.731 542.267 19.8663 542.267C22.0016 542.267 23.7326 543.998 23.7326 546.134ZM33.7849 494.326C35.9202 494.326 37.6512 492.595 37.6512 490.459C37.6512 488.324 35.9202 486.593 33.7849 486.593C31.6496 486.593 29.9186 488.324 29.9186 490.459C29.9186 492.595 31.6496 494.326 33.7849 494.326ZM37.6512 504.378C37.6512 506.513 35.9202 508.244 33.7849 508.244C31.6496 508.244 29.9186 506.513 29.9186 504.378C29.9186 502.243 31.6496 500.512 33.7849 500.512C35.9202 500.512 37.6512 502.243 37.6512 504.378ZM33.7849 522.163C35.9202 522.163 37.6512 520.432 37.6512 518.297C37.6512 516.161 35.9202 514.43 33.7849 514.43C31.6496 514.43 29.9186 516.161 29.9186 518.297C29.9186 520.432 31.6496 522.163 33.7849 522.163ZM37.6512 532.215C37.6512 534.35 35.9202 536.081 33.7849 536.081C31.6496 536.081 29.9186 534.35 29.9186 532.215C29.9186 530.08 31.6496 528.349 33.7849 528.349C35.9202 528.349 37.6512 530.08 37.6512 532.215ZM33.7849 550C35.9202 550 37.6512 548.269 37.6512 546.134C37.6512 543.998 35.9202 542.267 33.7849 542.267C31.6496 542.267 29.9186 543.998 29.9186 546.134C29.9186 548.269 31.6496 550 33.7849 550ZM51.5698 490.459C51.5698 492.595 49.8388 494.326 47.7035 494.326C45.5682 494.326 43.8372 492.595 43.8372 490.459C43.8372 488.324 45.5682 486.593 47.7035 486.593C49.8388 486.593 51.5698 488.324 51.5698 490.459ZM47.7035 508.244C49.8388 508.244 51.5698 506.513 51.5698 504.378C51.5698 502.243 49.8388 500.512 47.7035 500.512C45.5682 500.512 43.8372 502.243 43.8372 504.378C43.8372 506.513 45.5682 508.244 47.7035 508.244ZM51.5698 518.297C51.5698 520.432 49.8388 522.163 47.7035 522.163C45.5682 522.163 43.8372 520.432 43.8372 518.297C43.8372 516.161 45.5682 514.43 47.7035 514.43C49.8388 514.43 51.5698 516.161 51.5698 518.297ZM47.7035 536.081C49.8388 536.081 51.5698 534.35 51.5698 532.215C51.5698 530.08 49.8388 528.349 47.7035 528.349C45.5682 528.349 43.8372 530.08 43.8372 532.215C43.8372 534.35 45.5682 536.081 47.7035 536.081ZM51.5698 546.134C51.5698 548.269 49.8388 550 47.7035 550C45.5682 550 43.8372 548.269 43.8372 546.134C43.8372 543.998 45.5682 542.267 47.7035 542.267C49.8388 542.267 51.5698 543.998 51.5698 546.134ZM61.6221 494.326C63.7574 494.326 65.4884 492.595 65.4884 490.459C65.4884 488.324 63.7574 486.593 61.6221 486.593C59.4868 486.593 57.7558 488.324 57.7558 490.459C57.7558 492.595 59.4868 494.326 61.6221 494.326ZM65.4884 504.378C65.4884 506.513 63.7574 508.244 61.6221 508.244C59.4868 508.244 57.7558 506.513 57.7558 504.378C57.7558 502.243 59.4868 500.512 61.6221 500.512C63.7574 500.512 65.4884 502.243 65.4884 504.378ZM61.6221 522.163C63.7574 522.163 65.4884 520.432 65.4884 518.297C65.4884 516.161 63.7574 514.43 61.6221 514.43C59.4868 514.43 57.7558 516.161 57.7558 518.297C57.7558 520.432 59.4868 522.163 61.6221 522.163ZM65.4884 532.215C65.4884 534.35 63.7574 536.081 61.6221 536.081C59.4868 536.081 57.7558 534.35 57.7558 532.215C57.7558 530.08 59.4868 528.349 61.6221 528.349C63.7574 528.349 65.4884 530.08 65.4884 532.215ZM61.6221 550C63.7574 550 65.4884 548.269 65.4884 546.134C65.4884 543.998 63.7574 542.267 61.6221 542.267C59.4868 542.267 57.7558 543.998 57.7558 546.134C57.7558 548.269 59.4868 550 61.6221 550ZM79.407 490.459C79.407 492.595 77.676 494.326 75.5407 494.326C73.4054 494.326 71.6744 492.595 71.6744 490.459C71.6744 488.324 73.4054 486.593 75.5407 486.593C77.676 486.593 79.407 488.324 79.407 490.459ZM75.5407 508.244C77.676 508.244 79.407 506.513 79.407 504.378C79.407 502.243 77.676 500.512 75.5407 500.512C73.4054 500.512 71.6744 502.243 71.6744 504.378C71.6744 506.513 73.4054 508.244 75.5407 508.244ZM79.407 518.297C79.407 520.432 77.676 522.163 75.5407 522.163C73.4054 522.163 71.6744 520.432 71.6744 518.297C71.6744 516.161 73.4054 514.43 75.5407 514.43C77.676 514.43 79.407 516.161 79.407 518.297ZM75.5407 536.081C77.676 536.081 79.407 534.35 79.407 532.215C79.407 530.08 77.676 528.349 75.5407 528.349C73.4054 528.349 71.6744 530.08 71.6744 532.215C71.6744 534.35 73.4054 536.081 75.5407 536.081ZM79.407 546.134C79.407 548.269 77.676 550 75.5407 550C73.4054 550 71.6744 548.269 71.6744 546.134C71.6744 543.998 73.4054 542.267 75.5407 542.267C77.676 542.267 79.407 543.998 79.407 546.134ZM93.3256 490.459C93.3256 492.595 91.5946 494.326 89.4593 494.326C87.324 494.326 85.593 492.595 85.593 490.459C85.593 488.324 87.324 486.593 89.4593 486.593C91.5946 486.593 93.3256 488.324 93.3256 490.459ZM93.3256 504.378C93.3256 506.513 91.5946 508.244 89.4593 508.244C87.324 508.244 85.593 506.513 85.593 504.378C85.593 502.243 87.324 500.512 89.4593 500.512C91.5946 500.512 93.3256 502.243 93.3256 504.378ZM89.4593 522.163C91.5946 522.163 93.3256 520.432 93.3256 518.297C93.3256 516.161 91.5946 514.43 89.4593 514.43C87.324 514.43 85.593 516.161 85.593 518.297C85.593 520.432 87.324 522.163 89.4593 522.163ZM93.3256 532.215C93.3256 534.35 91.5946 536.081 89.4593 536.081C87.324 536.081 85.593 534.35 85.593 532.215C85.593 530.08 87.324 528.349 89.4593 528.349C91.5946 528.349 93.3256 530.08 93.3256 532.215ZM89.4593 550C91.5946 550 93.3256 548.269 93.3256 546.134C93.3256 543.998 91.5946 542.267 89.4593 542.267C87.324 542.267 85.593 543.998 85.593 546.134C85.593 548.269 87.324 550 89.4593 550ZM107.244 490.459C107.244 492.595 105.513 494.326 103.378 494.326C101.243 494.326 99.5116 492.595 99.5116 490.459C99.5116 488.324 101.243 486.593 103.378 486.593C105.513 486.593 107.244 488.324 107.244 490.459ZM103.378 508.244C105.513 508.244 107.244 506.513 107.244 504.378C107.244 502.243 105.513 500.512 103.378 500.512C101.243 500.512 99.5116 502.243 99.5116 504.378C99.5116 506.513 101.243 508.244 103.378 508.244ZM107.244 518.297C107.244 520.432 105.513 522.163 103.378 522.163C101.243 522.163 99.5116 520.432 99.5116 518.297C99.5116 516.161 101.243 514.43 103.378 514.43C105.513 514.43 107.244 516.161 107.244 518.297ZM103.378 536.081C105.513 536.081 107.244 534.35 107.244 532.215C107.244 530.08 105.513 528.349 103.378 528.349C101.243 528.349 99.5116 530.08 99.5116 532.215C99.5116 534.35 101.243 536.081 103.378 536.081ZM107.244 546.134C107.244 548.269 105.513 550 103.378 550C101.243 550 99.5116 548.269 99.5116 546.134C99.5116 543.998 101.243 542.267 103.378 542.267C105.513 542.267 107.244 543.998 107.244 546.134ZM117.297 494.326C119.432 494.326 121.163 492.595 121.163 490.459C121.163 488.324 119.432 486.593 117.297 486.593C115.161 486.593 113.43 488.324 113.43 490.459C113.43 492.595 115.161 494.326 117.297 494.326ZM121.163 504.378C121.163 506.513 119.432 508.244 117.297 508.244C115.161 508.244 113.43 506.513 113.43 504.378C113.43 502.243 115.161 500.512 117.297 500.512C119.432 500.512 121.163 502.243 121.163 504.378ZM117.297 522.163C119.432 522.163 121.163 520.432 121.163 518.297C121.163 516.161 119.432 514.43 117.297 514.43C115.161 514.43 113.43 516.161 113.43 518.297C113.43 520.432 115.161 522.163 117.297 522.163ZM121.163 532.215C121.163 534.35 119.432 536.081 117.297 536.081C115.161 536.081 113.43 534.35 113.43 532.215C113.43 530.08 115.161 528.349 117.297 528.349C119.432 528.349 121.163 530.08 121.163 532.215ZM117.297 550C119.432 550 121.163 548.269 121.163 546.134C121.163 543.998 119.432 542.267 117.297 542.267C115.161 542.267 113.43 543.998 113.43 546.134C113.43 548.269 115.161 550 117.297 550ZM135.081 490.459C135.081 492.595 133.35 494.326 131.215 494.326C129.08 494.326 127.349 492.595 127.349 490.459C127.349 488.324 129.08 486.593 131.215 486.593C133.35 486.593 135.081 488.324 135.081 490.459ZM131.215 508.244C133.35 508.244 135.081 506.513 135.081 504.378C135.081 502.243 133.35 500.512 131.215 500.512C129.08 500.512 127.349 502.243 127.349 504.378C127.349 506.513 129.08 508.244 131.215 508.244ZM135.081 518.297C135.081 520.432 133.35 522.163 131.215 522.163C129.08 522.163 127.349 520.432 127.349 518.297C127.349 516.161 129.08 514.43 131.215 514.43C133.35 514.43 135.081 516.161 135.081 518.297ZM131.215 536.081C133.35 536.081 135.081 534.35 135.081 532.215C135.081 530.08 133.35 528.349 131.215 528.349C129.08 528.349 127.349 530.08 127.349 532.215C127.349 534.35 129.08 536.081 131.215 536.081ZM135.081 546.134C135.081 548.269 133.35 550 131.215 550C129.08 550 127.349 548.269 127.349 546.134C127.349 543.998 129.08 542.267 131.215 542.267C133.35 542.267 135.081 543.998 135.081 546.134ZM145.134 494.326C147.269 494.326 149 492.595 149 490.459C149 488.324 147.269 486.593 145.134 486.593C142.998 486.593 141.267 488.324 141.267 490.459C141.267 492.595 142.998 494.326 145.134 494.326ZM149 504.378C149 506.513 147.269 508.244 145.134 508.244C142.998 508.244 141.267 506.513 141.267 504.378C141.267 502.243 142.998 500.512 145.134 500.512C147.269 500.512 149 502.243 149 504.378ZM145.134 522.163C147.269 522.163 149 520.432 149 518.297C149 516.161 147.269 514.43 145.134 514.43C142.998 514.43 141.267 516.161 141.267 518.297C141.267 520.432 142.998 522.163 145.134 522.163ZM149 532.215C149 534.35 147.269 536.081 145.134 536.081C142.998 536.081 141.267 534.35 141.267 532.215C141.267 530.08 142.998 528.349 145.134 528.349C147.269 528.349 149 530.08 149 532.215ZM145.134 550C147.269 550 149 548.269 149 546.134C149 543.998 147.269 542.267 145.134 542.267C142.998 542.267 141.267 543.998 141.267 546.134C141.267 548.269 142.998 550 145.134 550ZM89.4593 424.733C91.5946 424.733 93.3256 423.002 93.3256 420.866C93.3256 418.731 91.5946 417 89.4593 417C87.324 417 85.593 418.731 85.593 420.866C85.593 423.002 87.324 424.733 89.4593 424.733ZM89.4593 438.651C91.5946 438.651 93.3256 436.92 93.3256 434.785C93.3256 432.65 91.5946 430.919 89.4593 430.919C87.324 430.919 85.593 432.65 85.593 434.785C85.593 436.92 87.324 438.651 89.4593 438.651ZM93.3256 448.703C93.3256 450.839 91.5946 452.57 89.4593 452.57C87.324 452.57 85.593 450.839 85.593 448.703C85.593 446.568 87.324 444.837 89.4593 444.837C91.5946 444.837 93.3256 446.568 93.3256 448.703ZM89.4593 466.488C91.5946 466.488 93.3256 464.757 93.3256 462.622C93.3256 460.487 91.5946 458.756 89.4593 458.756C87.324 458.756 85.593 460.487 85.593 462.622C85.593 464.757 87.324 466.488 89.4593 466.488ZM93.3256 476.541C93.3256 478.676 91.5946 480.407 89.4593 480.407C87.324 480.407 85.593 478.676 85.593 476.541C85.593 474.405 87.324 472.674 89.4593 472.674C91.5946 472.674 93.3256 474.405 93.3256 476.541ZM103.378 424.733C105.513 424.733 107.244 423.002 107.244 420.866C107.244 418.731 105.513 417 103.378 417C101.243 417 99.5116 418.731 99.5116 420.866C99.5116 423.002 101.243 424.733 103.378 424.733ZM107.244 434.785C107.244 436.92 105.513 438.651 103.378 438.651C101.243 438.651 99.5116 436.92 99.5116 434.785C99.5116 432.65 101.243 430.919 103.378 430.919C105.513 430.919 107.244 432.65 107.244 434.785ZM103.378 452.57C105.513 452.57 107.244 450.839 107.244 448.703C107.244 446.568 105.513 444.837 103.378 444.837C101.243 444.837 99.5116 446.568 99.5116 448.703C99.5116 450.839 101.243 452.57 103.378 452.57ZM107.244 462.622C107.244 464.757 105.513 466.488 103.378 466.488C101.243 466.488 99.5116 464.757 99.5116 462.622C99.5116 460.487 101.243 458.756 103.378 458.756C105.513 458.756 107.244 460.487 107.244 462.622ZM103.378 480.407C105.513 480.407 107.244 478.676 107.244 476.541C107.244 474.405 105.513 472.674 103.378 472.674C101.243 472.674 99.5116 474.405 99.5116 476.541C99.5116 478.676 101.243 480.407 103.378 480.407ZM121.163 420.866C121.163 423.002 119.432 424.733 117.297 424.733C115.161 424.733 113.43 423.002 113.43 420.866C113.43 418.731 115.161 417 117.297 417C119.432 417 121.163 418.731 121.163 420.866ZM117.297 438.651C119.432 438.651 121.163 436.92 121.163 434.785C121.163 432.65 119.432 430.919 117.297 430.919C115.161 430.919 113.43 432.65 113.43 434.785C113.43 436.92 115.161 438.651 117.297 438.651ZM121.163 448.703C121.163 450.839 119.432 452.57 117.297 452.57C115.161 452.57 113.43 450.839 113.43 448.703C113.43 446.568 115.161 444.837 117.297 444.837C119.432 444.837 121.163 446.568 121.163 448.703ZM117.297 466.488C119.432 466.488 121.163 464.757 121.163 462.622C121.163 460.487 119.432 458.756 117.297 458.756C115.161 458.756 113.43 460.487 113.43 462.622C113.43 464.757 115.161 466.488 117.297 466.488ZM121.163 476.541C121.163 478.676 119.432 480.407 117.297 480.407C115.161 480.407 113.43 478.676 113.43 476.541C113.43 474.405 115.161 472.674 117.297 472.674C119.432 472.674 121.163 474.405 121.163 476.541ZM131.215 424.733C133.35 424.733 135.081 423.002 135.081 420.866C135.081 418.731 133.35 417 131.215 417C129.08 417 127.349 418.731 127.349 420.866C127.349 423.002 129.08 424.733 131.215 424.733ZM135.081 434.785C135.081 436.92 133.35 438.651 131.215 438.651C129.08 438.651 127.349 436.92 127.349 434.785C127.349 432.65 129.08 430.919 131.215 430.919C133.35 430.919 135.081 432.65 135.081 434.785ZM131.215 452.57C133.35 452.57 135.081 450.839 135.081 448.703C135.081 446.568 133.35 444.837 131.215 444.837C129.08 444.837 127.349 446.568 127.349 448.703C127.349 450.839 129.08 452.57 131.215 452.57ZM135.081 462.622C135.081 464.757 133.35 466.488 131.215 466.488C129.08 466.488 127.349 464.757 127.349 462.622C127.349 460.487 129.08 458.756 131.215 458.756C133.35 458.756 135.081 460.487 135.081 462.622ZM131.215 480.407C133.35 480.407 135.081 478.676 135.081 476.541C135.081 474.405 133.35 472.674 131.215 472.674C129.08 472.674 127.349 474.405 127.349 476.541C127.349 478.676 129.08 480.407 131.215 480.407ZM149 420.866C149 423.002 147.269 424.733 145.134 424.733C142.998 424.733 141.267 423.002 141.267 420.866C141.267 418.731 142.998 417 145.134 417C147.269 417 149 418.731 149 420.866ZM145.134 438.651C147.269 438.651 149 436.92 149 434.785C149 432.65 147.269 430.919 145.134 430.919C142.998 430.919 141.267 432.65 141.267 434.785C141.267 436.92 142.998 438.651 145.134 438.651ZM149 448.703C149 450.839 147.269 452.57 145.134 452.57C142.998 452.57 141.267 450.839 141.267 448.703C141.267 446.568 142.998 444.837 145.134 444.837C147.269 444.837 149 446.568 149 448.703ZM145.134 466.488C147.269 466.488 149 464.757 149 462.622C149 460.487 147.269 458.756 145.134 458.756C142.998 458.756 141.267 460.487 141.267 462.622C141.267 464.757 142.998 466.488 145.134 466.488ZM149 476.541C149 478.676 147.269 480.407 145.134 480.407C142.998 480.407 141.267 478.676 141.267 476.541C141.267 474.405 142.998 472.674 145.134 472.674C147.269 472.674 149 474.405 149 476.541Z" fill="#FFF4F4"/>
</g>
<defs>
<clipPath id="clip0_63_29">
<rect width="1341" height="637" fill="white"/>
</clipPath>
</defs>
</svg>
