<svg width="3439" height="912" viewBox="0 0 3439 912" fill="none" xmlns="http://www.w3.org/2000/svg">
<path d="M3438.5 0C2549 203 642.5 276 0 18C9.91477e-05 261.954 0.000114401 538.364 0 911.5C424.5 755 2313 675.5 3438.5 897V0Z" fill="#F5F0F0"/>
<path fill-rule="evenodd" clip-rule="evenodd" d="M2248.4 231.291C2253.31 231.291 2257.29 227.308 2257.29 222.395C2257.29 217.483 2253.31 213.5 2248.4 213.5C2243.48 213.5 2239.5 217.483 2239.5 222.395C2239.5 227.308 2243.48 231.291 2248.4 231.291ZM2248.4 263.314C2253.31 263.314 2257.29 259.331 2257.29 254.419C2257.29 249.506 2253.31 245.523 2248.4 245.523C2243.48 245.523 2239.5 249.506 2239.5 254.419C2239.5 259.331 2243.48 263.314 2248.4 263.314ZM2257.29 286.442C2257.29 291.355 2253.31 295.337 2248.4 295.337C2243.48 295.337 2239.5 291.355 2239.5 286.442C2239.5 281.529 2243.48 277.547 2248.4 277.547C2253.31 277.547 2257.29 281.529 2257.29 286.442ZM2248.4 327.36C2253.31 327.36 2257.29 323.378 2257.29 318.465C2257.29 313.552 2253.31 309.57 2248.4 309.57C2243.48 309.57 2239.5 313.552 2239.5 318.465C2239.5 323.378 2243.48 327.36 2248.4 327.36ZM2257.29 350.488C2257.29 355.401 2253.31 359.384 2248.4 359.384C2243.48 359.384 2239.5 355.401 2239.5 350.488C2239.5 345.576 2243.48 341.593 2248.4 341.593C2253.31 341.593 2257.29 345.576 2257.29 350.488ZM2280.42 231.291C2285.33 231.291 2289.31 227.308 2289.31 222.395C2289.31 217.483 2285.33 213.5 2280.42 213.5C2275.51 213.5 2271.52 217.483 2271.52 222.395C2271.52 227.308 2275.51 231.291 2280.42 231.291ZM2289.31 254.419C2289.31 259.331 2285.33 263.314 2280.42 263.314C2275.51 263.314 2271.52 259.331 2271.52 254.419C2271.52 249.506 2275.51 245.523 2280.42 245.523C2285.33 245.523 2289.31 249.506 2289.31 254.419ZM2280.42 295.337C2285.33 295.337 2289.31 291.355 2289.31 286.442C2289.31 281.529 2285.33 277.547 2280.42 277.547C2275.51 277.547 2271.52 281.529 2271.52 286.442C2271.52 291.355 2275.51 295.337 2280.42 295.337ZM2289.31 318.465C2289.31 323.378 2285.33 327.36 2280.42 327.36C2275.51 327.36 2271.52 323.378 2271.52 318.465C2271.52 313.552 2275.51 309.57 2280.42 309.57C2285.33 309.57 2289.31 313.552 2289.31 318.465ZM2280.42 359.384C2285.33 359.384 2289.31 355.401 2289.31 350.488C2289.31 345.576 2285.33 341.593 2280.42 341.593C2275.51 341.593 2271.52 345.576 2271.52 350.488C2271.52 355.401 2275.51 359.384 2280.42 359.384ZM2321.34 222.395C2321.34 227.308 2317.35 231.291 2312.44 231.291C2307.53 231.291 2303.55 227.308 2303.55 222.395C2303.55 217.483 2307.53 213.5 2312.44 213.5C2317.35 213.5 2321.34 217.483 2321.34 222.395ZM2312.44 263.314C2317.35 263.314 2321.34 259.331 2321.34 254.419C2321.34 249.506 2317.35 245.523 2312.44 245.523C2307.53 245.523 2303.55 249.506 2303.55 254.419C2303.55 259.331 2307.53 263.314 2312.44 263.314ZM2321.34 286.442C2321.34 291.355 2317.35 295.337 2312.44 295.337C2307.53 295.337 2303.55 291.355 2303.55 286.442C2303.55 281.529 2307.53 277.547 2312.44 277.547C2317.35 277.547 2321.34 281.529 2321.34 286.442ZM2312.44 327.36C2317.35 327.36 2321.34 323.378 2321.34 318.465C2321.34 313.552 2317.35 309.57 2312.44 309.57C2307.53 309.57 2303.55 313.552 2303.55 318.465C2303.55 323.378 2307.53 327.36 2312.44 327.36ZM2321.34 350.488C2321.34 355.401 2317.35 359.384 2312.44 359.384C2307.53 359.384 2303.55 355.401 2303.55 350.488C2303.55 345.576 2307.53 341.593 2312.44 341.593C2317.35 341.593 2321.34 345.576 2321.34 350.488ZM2344.47 231.291C2349.38 231.291 2353.36 227.308 2353.36 222.395C2353.36 217.483 2349.38 213.5 2344.47 213.5C2339.55 213.5 2335.57 217.483 2335.57 222.395C2335.57 227.308 2339.55 231.291 2344.47 231.291ZM2353.36 254.419C2353.36 259.331 2349.38 263.314 2344.47 263.314C2339.55 263.314 2335.57 259.331 2335.57 254.419C2335.57 249.506 2339.55 245.523 2344.47 245.523C2349.38 245.523 2353.36 249.506 2353.36 254.419ZM2344.47 295.337C2349.38 295.337 2353.36 291.355 2353.36 286.442C2353.36 281.529 2349.38 277.547 2344.47 277.547C2339.55 277.547 2335.57 281.529 2335.57 286.442C2335.57 291.355 2339.55 295.337 2344.47 295.337ZM2353.36 318.465C2353.36 323.378 2349.38 327.36 2344.47 327.36C2339.55 327.36 2335.57 323.378 2335.57 318.465C2335.57 313.552 2339.55 309.57 2344.47 309.57C2349.38 309.57 2353.36 313.552 2353.36 318.465ZM2344.47 359.384C2349.38 359.384 2353.36 355.401 2353.36 350.488C2353.36 345.576 2349.38 341.593 2344.47 341.593C2339.55 341.593 2335.57 345.576 2335.57 350.488C2335.57 355.401 2339.55 359.384 2344.47 359.384ZM2385.38 222.395C2385.38 227.308 2381.4 231.291 2376.49 231.291C2371.58 231.291 2367.59 227.308 2367.59 222.395C2367.59 217.483 2371.58 213.5 2376.49 213.5C2381.4 213.5 2385.38 217.483 2385.38 222.395ZM2376.49 263.314C2381.4 263.314 2385.38 259.331 2385.38 254.419C2385.38 249.506 2381.4 245.523 2376.49 245.523C2371.58 245.523 2367.59 249.506 2367.59 254.419C2367.59 259.331 2371.58 263.314 2376.49 263.314ZM2385.38 286.442C2385.38 291.355 2381.4 295.337 2376.49 295.337C2371.58 295.337 2367.59 291.355 2367.59 286.442C2367.59 281.529 2371.58 277.547 2376.49 277.547C2381.4 277.547 2385.38 281.529 2385.38 286.442ZM2376.49 327.36C2381.4 327.36 2385.38 323.378 2385.38 318.465C2385.38 313.552 2381.4 309.57 2376.49 309.57C2371.58 309.57 2367.59 313.552 2367.59 318.465C2367.59 323.378 2371.58 327.36 2376.49 327.36ZM2385.38 350.488C2385.38 355.401 2381.4 359.384 2376.49 359.384C2371.58 359.384 2367.59 355.401 2367.59 350.488C2367.59 345.576 2371.58 341.593 2376.49 341.593C2381.4 341.593 2385.38 345.576 2385.38 350.488ZM2248.4 391.407C2253.31 391.407 2257.29 387.424 2257.29 382.512C2257.29 377.599 2253.31 373.616 2248.4 373.616C2243.48 373.616 2239.5 377.599 2239.5 382.512C2239.5 387.424 2243.48 391.407 2248.4 391.407ZM2248.4 423.43C2253.31 423.43 2257.29 419.448 2257.29 414.535C2257.29 409.622 2253.31 405.64 2248.4 405.64C2243.48 405.64 2239.5 409.622 2239.5 414.535C2239.5 419.448 2243.48 423.43 2248.4 423.43ZM2257.29 446.558C2257.29 451.471 2253.31 455.453 2248.4 455.453C2243.48 455.453 2239.5 451.471 2239.5 446.558C2239.5 441.645 2243.48 437.663 2248.4 437.663C2253.31 437.663 2257.29 441.645 2257.29 446.558ZM2248.4 487.477C2253.31 487.477 2257.29 483.494 2257.29 478.581C2257.29 473.669 2253.31 469.686 2248.4 469.686C2243.48 469.686 2239.5 473.669 2239.5 478.581C2239.5 483.494 2243.48 487.477 2248.4 487.477ZM2257.29 510.605C2257.29 515.517 2253.31 519.5 2248.4 519.5C2243.48 519.5 2239.5 515.517 2239.5 510.605C2239.5 505.692 2243.48 501.709 2248.4 501.709C2253.31 501.709 2257.29 505.692 2257.29 510.605ZM2280.42 391.407C2285.33 391.407 2289.31 387.424 2289.31 382.512C2289.31 377.599 2285.33 373.616 2280.42 373.616C2275.51 373.616 2271.52 377.599 2271.52 382.512C2271.52 387.424 2275.51 391.407 2280.42 391.407ZM2289.31 414.535C2289.31 419.448 2285.33 423.43 2280.42 423.43C2275.51 423.43 2271.52 419.448 2271.52 414.535C2271.52 409.622 2275.51 405.64 2280.42 405.64C2285.33 405.64 2289.31 409.622 2289.31 414.535ZM2280.42 455.453C2285.33 455.453 2289.31 451.471 2289.31 446.558C2289.31 441.645 2285.33 437.663 2280.42 437.663C2275.51 437.663 2271.52 441.645 2271.52 446.558C2271.52 451.471 2275.51 455.453 2280.42 455.453ZM2289.31 478.581C2289.31 483.494 2285.33 487.477 2280.42 487.477C2275.51 487.477 2271.52 483.494 2271.52 478.581C2271.52 473.669 2275.51 469.686 2280.42 469.686C2285.33 469.686 2289.31 473.669 2289.31 478.581ZM2280.42 519.5C2285.33 519.5 2289.31 515.517 2289.31 510.605C2289.31 505.692 2285.33 501.709 2280.42 501.709C2275.51 501.709 2271.52 505.692 2271.52 510.605C2271.52 515.517 2275.51 519.5 2280.42 519.5ZM2321.34 382.512C2321.34 387.424 2317.35 391.407 2312.44 391.407C2307.53 391.407 2303.55 387.424 2303.55 382.512C2303.55 377.599 2307.53 373.616 2312.44 373.616C2317.35 373.616 2321.34 377.599 2321.34 382.512ZM2312.44 423.43C2317.35 423.43 2321.34 419.448 2321.34 414.535C2321.34 409.622 2317.35 405.64 2312.44 405.64C2307.53 405.64 2303.55 409.622 2303.55 414.535C2303.55 419.448 2307.53 423.43 2312.44 423.43ZM2321.34 446.558C2321.34 451.471 2317.35 455.453 2312.44 455.453C2307.53 455.453 2303.55 451.471 2303.55 446.558C2303.55 441.645 2307.53 437.663 2312.44 437.663C2317.35 437.663 2321.34 441.645 2321.34 446.558ZM2312.44 487.477C2317.35 487.477 2321.34 483.494 2321.34 478.581C2321.34 473.669 2317.35 469.686 2312.44 469.686C2307.53 469.686 2303.55 473.669 2303.55 478.581C2303.55 483.494 2307.53 487.477 2312.44 487.477ZM2321.34 510.605C2321.34 515.517 2317.35 519.5 2312.44 519.5C2307.53 519.5 2303.55 515.517 2303.55 510.605C2303.55 505.692 2307.53 501.709 2312.44 501.709C2317.35 501.709 2321.34 505.692 2321.34 510.605ZM2344.47 391.407C2349.38 391.407 2353.36 387.424 2353.36 382.512C2353.36 377.599 2349.38 373.616 2344.47 373.616C2339.55 373.616 2335.57 377.599 2335.57 382.512C2335.57 387.424 2339.55 391.407 2344.47 391.407ZM2353.36 414.535C2353.36 419.448 2349.38 423.43 2344.47 423.43C2339.55 423.43 2335.57 419.448 2335.57 414.535C2335.57 409.622 2339.55 405.64 2344.47 405.64C2349.38 405.64 2353.36 409.622 2353.36 414.535ZM2344.47 455.453C2349.38 455.453 2353.36 451.471 2353.36 446.558C2353.36 441.645 2349.38 437.663 2344.47 437.663C2339.55 437.663 2335.57 441.645 2335.57 446.558C2335.57 451.471 2339.55 455.453 2344.47 455.453ZM2353.36 478.581C2353.36 483.494 2349.38 487.477 2344.47 487.477C2339.55 487.477 2335.57 483.494 2335.57 478.581C2335.57 473.669 2339.55 469.686 2344.47 469.686C2349.38 469.686 2353.36 473.669 2353.36 478.581ZM2344.47 519.5C2349.38 519.5 2353.36 515.517 2353.36 510.605C2353.36 505.692 2349.38 501.709 2344.47 501.709C2339.55 501.709 2335.57 505.692 2335.57 510.605C2335.57 515.517 2339.55 519.5 2344.47 519.5ZM2385.38 382.512C2385.38 387.424 2381.4 391.407 2376.49 391.407C2371.58 391.407 2367.59 387.424 2367.59 382.512C2367.59 377.599 2371.58 373.616 2376.49 373.616C2381.4 373.616 2385.38 377.599 2385.38 382.512ZM2376.49 423.43C2381.4 423.43 2385.38 419.448 2385.38 414.535C2385.38 409.622 2381.4 405.64 2376.49 405.64C2371.58 405.64 2367.59 409.622 2367.59 414.535C2367.59 419.448 2371.58 423.43 2376.49 423.43ZM2385.38 446.558C2385.38 451.471 2381.4 455.453 2376.49 455.453C2371.58 455.453 2367.59 451.471 2367.59 446.558C2367.59 441.645 2371.58 437.663 2376.49 437.663C2381.4 437.663 2385.38 441.645 2385.38 446.558ZM2376.49 487.477C2381.4 487.477 2385.38 483.494 2385.38 478.581C2385.38 473.669 2381.4 469.686 2376.49 469.686C2371.58 469.686 2367.59 473.669 2367.59 478.581C2367.59 483.494 2371.58 487.477 2376.49 487.477ZM2385.38 510.605C2385.38 515.517 2381.4 519.5 2376.49 519.5C2371.58 519.5 2367.59 515.517 2367.59 510.605C2367.59 505.692 2371.58 501.709 2376.49 501.709C2381.4 501.709 2385.38 505.692 2385.38 510.605ZM2417.41 382.512C2417.41 387.424 2413.42 391.407 2408.51 391.407C2403.6 391.407 2399.62 387.424 2399.62 382.512C2399.62 377.599 2403.6 373.616 2408.51 373.616C2413.42 373.616 2417.41 377.599 2417.41 382.512ZM2417.41 414.535C2417.41 419.448 2413.42 423.43 2408.51 423.43C2403.6 423.43 2399.62 419.448 2399.62 414.535C2399.62 409.622 2403.6 405.64 2408.51 405.64C2413.42 405.64 2417.41 409.622 2417.41 414.535ZM2408.51 455.453C2413.42 455.453 2417.41 451.471 2417.41 446.558C2417.41 441.645 2413.42 437.663 2408.51 437.663C2403.6 437.663 2399.62 441.645 2399.62 446.558C2399.62 451.471 2403.6 455.453 2408.51 455.453ZM2417.41 478.581C2417.41 483.494 2413.42 487.477 2408.51 487.477C2403.6 487.477 2399.62 483.494 2399.62 478.581C2399.62 473.669 2403.6 469.686 2408.51 469.686C2413.42 469.686 2417.41 473.669 2417.41 478.581ZM2408.51 519.5C2413.42 519.5 2417.41 515.517 2417.41 510.605C2417.41 505.692 2413.42 501.709 2408.51 501.709C2403.6 501.709 2399.62 505.692 2399.62 510.605C2399.62 515.517 2403.6 519.5 2408.51 519.5ZM2449.43 382.512C2449.43 387.424 2445.45 391.407 2440.53 391.407C2435.62 391.407 2431.64 387.424 2431.64 382.512C2431.64 377.599 2435.62 373.616 2440.53 373.616C2445.45 373.616 2449.43 377.599 2449.43 382.512ZM2440.53 423.43C2445.45 423.43 2449.43 419.448 2449.43 414.535C2449.43 409.622 2445.45 405.64 2440.53 405.64C2435.62 405.64 2431.64 409.622 2431.64 414.535C2431.64 419.448 2435.62 423.43 2440.53 423.43ZM2449.43 446.558C2449.43 451.471 2445.45 455.453 2440.53 455.453C2435.62 455.453 2431.64 451.471 2431.64 446.558C2431.64 441.645 2435.62 437.663 2440.53 437.663C2445.45 437.663 2449.43 441.645 2449.43 446.558ZM2440.53 487.477C2445.45 487.477 2449.43 483.494 2449.43 478.581C2449.43 473.669 2445.45 469.686 2440.53 469.686C2435.62 469.686 2431.64 473.669 2431.64 478.581C2431.64 483.494 2435.62 487.477 2440.53 487.477ZM2449.43 510.605C2449.43 515.517 2445.45 519.5 2440.53 519.5C2435.62 519.5 2431.64 515.517 2431.64 510.605C2431.64 505.692 2435.62 501.709 2440.53 501.709C2445.45 501.709 2449.43 505.692 2449.43 510.605ZM2472.56 391.407C2477.47 391.407 2481.45 387.424 2481.45 382.512C2481.45 377.599 2477.47 373.616 2472.56 373.616C2467.65 373.616 2463.66 377.599 2463.66 382.512C2463.66 387.424 2467.65 391.407 2472.56 391.407ZM2481.45 414.535C2481.45 419.448 2477.47 423.43 2472.56 423.43C2467.65 423.43 2463.66 419.448 2463.66 414.535C2463.66 409.622 2467.65 405.64 2472.56 405.64C2477.47 405.64 2481.45 409.622 2481.45 414.535ZM2472.56 455.453C2477.47 455.453 2481.45 451.471 2481.45 446.558C2481.45 441.645 2477.47 437.663 2472.56 437.663C2467.65 437.663 2463.66 441.645 2463.66 446.558C2463.66 451.471 2467.65 455.453 2472.56 455.453ZM2481.45 478.581C2481.45 483.494 2477.47 487.477 2472.56 487.477C2467.65 487.477 2463.66 483.494 2463.66 478.581C2463.66 473.669 2467.65 469.686 2472.56 469.686C2477.47 469.686 2481.45 473.669 2481.45 478.581ZM2472.56 519.5C2477.47 519.5 2481.45 515.517 2481.45 510.605C2481.45 505.692 2477.47 501.709 2472.56 501.709C2467.65 501.709 2463.66 505.692 2463.66 510.605C2463.66 515.517 2467.65 519.5 2472.56 519.5ZM2513.48 382.512C2513.48 387.424 2509.49 391.407 2504.58 391.407C2499.67 391.407 2495.69 387.424 2495.69 382.512C2495.69 377.599 2499.67 373.616 2504.58 373.616C2509.49 373.616 2513.48 377.599 2513.48 382.512ZM2504.58 423.43C2509.49 423.43 2513.48 419.448 2513.48 414.535C2513.48 409.622 2509.49 405.64 2504.58 405.64C2499.67 405.64 2495.69 409.622 2495.69 414.535C2495.69 419.448 2499.67 423.43 2504.58 423.43ZM2513.48 446.558C2513.48 451.471 2509.49 455.453 2504.58 455.453C2499.67 455.453 2495.69 451.471 2495.69 446.558C2495.69 441.645 2499.67 437.663 2504.58 437.663C2509.49 437.663 2513.48 441.645 2513.48 446.558ZM2504.58 487.477C2509.49 487.477 2513.48 483.494 2513.48 478.581C2513.48 473.669 2509.49 469.686 2504.58 469.686C2499.67 469.686 2495.69 473.669 2495.69 478.581C2495.69 483.494 2499.67 487.477 2504.58 487.477ZM2513.48 510.605C2513.48 515.517 2509.49 519.5 2504.58 519.5C2499.67 519.5 2495.69 515.517 2495.69 510.605C2495.69 505.692 2499.67 501.709 2504.58 501.709C2509.49 501.709 2513.48 505.692 2513.48 510.605ZM2536.6 391.407C2541.52 391.407 2545.5 387.424 2545.5 382.512C2545.5 377.599 2541.52 373.616 2536.6 373.616C2531.69 373.616 2527.71 377.599 2527.71 382.512C2527.71 387.424 2531.69 391.407 2536.6 391.407ZM2545.5 414.535C2545.5 419.448 2541.52 423.43 2536.6 423.43C2531.69 423.43 2527.71 419.448 2527.71 414.535C2527.71 409.622 2531.69 405.64 2536.6 405.64C2541.52 405.64 2545.5 409.622 2545.5 414.535ZM2536.6 455.453C2541.52 455.453 2545.5 451.471 2545.5 446.558C2545.5 441.645 2541.52 437.663 2536.6 437.663C2531.69 437.663 2527.71 441.645 2527.71 446.558C2527.71 451.471 2531.69 455.453 2536.6 455.453ZM2545.5 478.581C2545.5 483.494 2541.52 487.477 2536.6 487.477C2531.69 487.477 2527.71 483.494 2527.71 478.581C2527.71 473.669 2531.69 469.686 2536.6 469.686C2541.52 469.686 2545.5 473.669 2545.5 478.581ZM2536.6 519.5C2541.52 519.5 2545.5 515.517 2545.5 510.605C2545.5 505.692 2541.52 501.709 2536.6 501.709C2531.69 501.709 2527.71 505.692 2527.71 510.605C2527.71 515.517 2531.69 519.5 2536.6 519.5ZM2408.51 231.291C2413.42 231.291 2417.41 227.308 2417.41 222.395C2417.41 217.483 2413.42 213.5 2408.51 213.5C2403.6 213.5 2399.62 217.483 2399.62 222.395C2399.62 227.308 2403.6 231.291 2408.51 231.291ZM2408.51 263.314C2413.42 263.314 2417.41 259.331 2417.41 254.419C2417.41 249.506 2413.42 245.523 2408.51 245.523C2403.6 245.523 2399.62 249.506 2399.62 254.419C2399.62 259.331 2403.6 263.314 2408.51 263.314ZM2417.41 286.442C2417.41 291.355 2413.42 295.337 2408.51 295.337C2403.6 295.337 2399.62 291.355 2399.62 286.442C2399.62 281.529 2403.6 277.547 2408.51 277.547C2413.42 277.547 2417.41 281.529 2417.41 286.442ZM2408.51 327.36C2413.42 327.36 2417.41 323.378 2417.41 318.465C2417.41 313.552 2413.42 309.57 2408.51 309.57C2403.6 309.57 2399.62 313.552 2399.62 318.465C2399.62 323.378 2403.6 327.36 2408.51 327.36ZM2417.41 350.488C2417.41 355.401 2413.42 359.384 2408.51 359.384C2403.6 359.384 2399.62 355.401 2399.62 350.488C2399.62 345.576 2403.6 341.593 2408.51 341.593C2413.42 341.593 2417.41 345.576 2417.41 350.488ZM2440.53 231.291C2445.45 231.291 2449.43 227.308 2449.43 222.395C2449.43 217.483 2445.45 213.5 2440.53 213.5C2435.62 213.5 2431.64 217.483 2431.64 222.395C2431.64 227.308 2435.62 231.291 2440.53 231.291ZM2449.43 254.419C2449.43 259.331 2445.45 263.314 2440.53 263.314C2435.62 263.314 2431.64 259.331 2431.64 254.419C2431.64 249.506 2435.62 245.523 2440.53 245.523C2445.45 245.523 2449.43 249.506 2449.43 254.419ZM2440.53 295.337C2445.45 295.337 2449.43 291.355 2449.43 286.442C2449.43 281.529 2445.45 277.547 2440.53 277.547C2435.62 277.547 2431.64 281.529 2431.64 286.442C2431.64 291.355 2435.62 295.337 2440.53 295.337ZM2449.43 318.465C2449.43 323.378 2445.45 327.36 2440.53 327.36C2435.62 327.36 2431.64 323.378 2431.64 318.465C2431.64 313.552 2435.62 309.57 2440.53 309.57C2445.45 309.57 2449.43 313.552 2449.43 318.465ZM2440.53 359.384C2445.45 359.384 2449.43 355.401 2449.43 350.488C2449.43 345.576 2445.45 341.593 2440.53 341.593C2435.62 341.593 2431.64 345.576 2431.64 350.488C2431.64 355.401 2435.62 359.384 2440.53 359.384ZM2481.45 222.395C2481.45 227.308 2477.47 231.291 2472.56 231.291C2467.65 231.291 2463.66 227.308 2463.66 222.395C2463.66 217.483 2467.65 213.5 2472.56 213.5C2477.47 213.5 2481.45 217.483 2481.45 222.395ZM2472.56 263.314C2477.47 263.314 2481.45 259.331 2481.45 254.419C2481.45 249.506 2477.47 245.523 2472.56 245.523C2467.65 245.523 2463.66 249.506 2463.66 254.419C2463.66 259.331 2467.65 263.314 2472.56 263.314ZM2481.45 286.442C2481.45 291.355 2477.47 295.337 2472.56 295.337C2467.65 295.337 2463.66 291.355 2463.66 286.442C2463.66 281.529 2467.65 277.547 2472.56 277.547C2477.47 277.547 2481.45 281.529 2481.45 286.442ZM2472.56 327.36C2477.47 327.36 2481.45 323.378 2481.45 318.465C2481.45 313.552 2477.47 309.57 2472.56 309.57C2467.65 309.57 2463.66 313.552 2463.66 318.465C2463.66 323.378 2467.65 327.36 2472.56 327.36ZM2481.45 350.488C2481.45 355.401 2477.47 359.384 2472.56 359.384C2467.65 359.384 2463.66 355.401 2463.66 350.488C2463.66 345.576 2467.65 341.593 2472.56 341.593C2477.47 341.593 2481.45 345.576 2481.45 350.488ZM2504.58 231.291C2509.49 231.291 2513.48 227.308 2513.48 222.395C2513.48 217.483 2509.49 213.5 2504.58 213.5C2499.67 213.5 2495.69 217.483 2495.69 222.395C2495.69 227.308 2499.67 231.291 2504.58 231.291ZM2513.48 254.419C2513.48 259.331 2509.49 263.314 2504.58 263.314C2499.67 263.314 2495.69 259.331 2495.69 254.419C2495.69 249.506 2499.67 245.523 2504.58 245.523C2509.49 245.523 2513.48 249.506 2513.48 254.419ZM2504.58 295.337C2509.49 295.337 2513.48 291.355 2513.48 286.442C2513.48 281.529 2509.49 277.547 2504.58 277.547C2499.67 277.547 2495.69 281.529 2495.69 286.442C2495.69 291.355 2499.67 295.337 2504.58 295.337ZM2513.48 318.465C2513.48 323.378 2509.49 327.36 2504.58 327.36C2499.67 327.36 2495.69 323.378 2495.69 318.465C2495.69 313.552 2499.67 309.57 2504.58 309.57C2509.49 309.57 2513.48 313.552 2513.48 318.465ZM2504.58 359.384C2509.49 359.384 2513.48 355.401 2513.48 350.488C2513.48 345.576 2509.49 341.593 2504.58 341.593C2499.67 341.593 2495.69 345.576 2495.69 350.488C2495.69 355.401 2499.67 359.384 2504.58 359.384ZM2545.5 222.395C2545.5 227.308 2541.52 231.291 2536.6 231.291C2531.69 231.291 2527.71 227.308 2527.71 222.395C2527.71 217.483 2531.69 213.5 2536.6 213.5C2541.52 213.5 2545.5 217.483 2545.5 222.395ZM2536.6 263.314C2541.52 263.314 2545.5 259.331 2545.5 254.419C2545.5 249.506 2541.52 245.523 2536.6 245.523C2531.69 245.523 2527.71 249.506 2527.71 254.419C2527.71 259.331 2531.69 263.314 2536.6 263.314ZM2545.5 286.442C2545.5 291.355 2541.52 295.337 2536.6 295.337C2531.69 295.337 2527.71 291.355 2527.71 286.442C2527.71 281.529 2531.69 277.547 2536.6 277.547C2541.52 277.547 2545.5 281.529 2545.5 286.442ZM2536.6 327.36C2541.52 327.36 2545.5 323.378 2545.5 318.465C2545.5 313.552 2541.52 309.57 2536.6 309.57C2531.69 309.57 2527.71 313.552 2527.71 318.465C2527.71 323.378 2531.69 327.36 2536.6 327.36ZM2545.5 350.488C2545.5 355.401 2541.52 359.384 2536.6 359.384C2531.69 359.384 2527.71 355.401 2527.71 350.488C2527.71 345.576 2531.69 341.593 2536.6 341.593C2541.52 341.593 2545.5 345.576 2545.5 350.488Z" fill="#FFF4F4"/>
<path fill-rule="evenodd" clip-rule="evenodd" d="M1006.37 580.233C1008.5 580.233 1010.23 578.502 1010.23 576.366C1010.23 574.231 1008.5 572.5 1006.37 572.5C1004.23 572.5 1002.5 574.231 1002.5 576.366C1002.5 578.502 1004.23 580.233 1006.37 580.233ZM1006.37 594.151C1008.5 594.151 1010.23 592.42 1010.23 590.285C1010.23 588.15 1008.5 586.419 1006.37 586.419C1004.23 586.419 1002.5 588.15 1002.5 590.285C1002.5 592.42 1004.23 594.151 1006.37 594.151ZM1010.23 604.203C1010.23 606.339 1008.5 608.07 1006.37 608.07C1004.23 608.07 1002.5 606.339 1002.5 604.203C1002.5 602.068 1004.23 600.337 1006.37 600.337C1008.5 600.337 1010.23 602.068 1010.23 604.203ZM1006.37 621.988C1008.5 621.988 1010.23 620.257 1010.23 618.122C1010.23 615.987 1008.5 614.256 1006.37 614.256C1004.23 614.256 1002.5 615.987 1002.5 618.122C1002.5 620.257 1004.23 621.988 1006.37 621.988ZM1010.23 632.041C1010.23 634.176 1008.5 635.907 1006.37 635.907C1004.23 635.907 1002.5 634.176 1002.5 632.041C1002.5 629.905 1004.23 628.174 1006.37 628.174C1008.5 628.174 1010.23 629.905 1010.23 632.041ZM1020.28 580.233C1022.42 580.233 1024.15 578.502 1024.15 576.366C1024.15 574.231 1022.42 572.5 1020.28 572.5C1018.15 572.5 1016.42 574.231 1016.42 576.366C1016.42 578.502 1018.15 580.233 1020.28 580.233ZM1024.15 590.285C1024.15 592.42 1022.42 594.151 1020.28 594.151C1018.15 594.151 1016.42 592.42 1016.42 590.285C1016.42 588.15 1018.15 586.419 1020.28 586.419C1022.42 586.419 1024.15 588.15 1024.15 590.285ZM1020.28 608.07C1022.42 608.07 1024.15 606.339 1024.15 604.203C1024.15 602.068 1022.42 600.337 1020.28 600.337C1018.15 600.337 1016.42 602.068 1016.42 604.203C1016.42 606.339 1018.15 608.07 1020.28 608.07ZM1024.15 618.122C1024.15 620.257 1022.42 621.988 1020.28 621.988C1018.15 621.988 1016.42 620.257 1016.42 618.122C1016.42 615.987 1018.15 614.256 1020.28 614.256C1022.42 614.256 1024.15 615.987 1024.15 618.122ZM1020.28 635.907C1022.42 635.907 1024.15 634.176 1024.15 632.041C1024.15 629.905 1022.42 628.174 1020.28 628.174C1018.15 628.174 1016.42 629.905 1016.42 632.041C1016.42 634.176 1018.15 635.907 1020.28 635.907ZM1038.07 576.366C1038.07 578.502 1036.34 580.233 1034.2 580.233C1032.07 580.233 1030.34 578.502 1030.34 576.366C1030.34 574.231 1032.07 572.5 1034.2 572.5C1036.34 572.5 1038.07 574.231 1038.07 576.366ZM1034.2 594.151C1036.34 594.151 1038.07 592.42 1038.07 590.285C1038.07 588.15 1036.34 586.419 1034.2 586.419C1032.07 586.419 1030.34 588.15 1030.34 590.285C1030.34 592.42 1032.07 594.151 1034.2 594.151ZM1038.07 604.203C1038.07 606.339 1036.34 608.07 1034.2 608.07C1032.07 608.07 1030.34 606.339 1030.34 604.203C1030.34 602.068 1032.07 600.337 1034.2 600.337C1036.34 600.337 1038.07 602.068 1038.07 604.203ZM1034.2 621.988C1036.34 621.988 1038.07 620.257 1038.07 618.122C1038.07 615.987 1036.34 614.256 1034.2 614.256C1032.07 614.256 1030.34 615.987 1030.34 618.122C1030.34 620.257 1032.07 621.988 1034.2 621.988ZM1038.07 632.041C1038.07 634.176 1036.34 635.907 1034.2 635.907C1032.07 635.907 1030.34 634.176 1030.34 632.041C1030.34 629.905 1032.07 628.174 1034.2 628.174C1036.34 628.174 1038.07 629.905 1038.07 632.041ZM1048.12 580.233C1050.26 580.233 1051.99 578.502 1051.99 576.366C1051.99 574.231 1050.26 572.5 1048.12 572.5C1045.99 572.5 1044.26 574.231 1044.26 576.366C1044.26 578.502 1045.99 580.233 1048.12 580.233ZM1051.99 590.285C1051.99 592.42 1050.26 594.151 1048.12 594.151C1045.99 594.151 1044.26 592.42 1044.26 590.285C1044.26 588.15 1045.99 586.419 1048.12 586.419C1050.26 586.419 1051.99 588.15 1051.99 590.285ZM1048.12 608.07C1050.26 608.07 1051.99 606.339 1051.99 604.203C1051.99 602.068 1050.26 600.337 1048.12 600.337C1045.99 600.337 1044.26 602.068 1044.26 604.203C1044.26 606.339 1045.99 608.07 1048.12 608.07ZM1051.99 618.122C1051.99 620.257 1050.26 621.988 1048.12 621.988C1045.99 621.988 1044.26 620.257 1044.26 618.122C1044.26 615.987 1045.99 614.256 1048.12 614.256C1050.26 614.256 1051.99 615.987 1051.99 618.122ZM1048.12 635.907C1050.26 635.907 1051.99 634.176 1051.99 632.041C1051.99 629.905 1050.26 628.174 1048.12 628.174C1045.99 628.174 1044.26 629.905 1044.26 632.041C1044.26 634.176 1045.99 635.907 1048.12 635.907ZM1065.91 576.366C1065.91 578.502 1064.18 580.233 1062.04 580.233C1059.91 580.233 1058.17 578.502 1058.17 576.366C1058.17 574.231 1059.91 572.5 1062.04 572.5C1064.18 572.5 1065.91 574.231 1065.91 576.366ZM1062.04 594.151C1064.18 594.151 1065.91 592.42 1065.91 590.285C1065.91 588.15 1064.18 586.419 1062.04 586.419C1059.91 586.419 1058.17 588.15 1058.17 590.285C1058.17 592.42 1059.91 594.151 1062.04 594.151ZM1065.91 604.203C1065.91 606.339 1064.18 608.07 1062.04 608.07C1059.91 608.07 1058.17 606.339 1058.17 604.203C1058.17 602.068 1059.91 600.337 1062.04 600.337C1064.18 600.337 1065.91 602.068 1065.91 604.203ZM1062.04 621.988C1064.18 621.988 1065.91 620.257 1065.91 618.122C1065.91 615.987 1064.18 614.256 1062.04 614.256C1059.91 614.256 1058.17 615.987 1058.17 618.122C1058.17 620.257 1059.91 621.988 1062.04 621.988ZM1065.91 632.041C1065.91 634.176 1064.18 635.907 1062.04 635.907C1059.91 635.907 1058.17 634.176 1058.17 632.041C1058.17 629.905 1059.91 628.174 1062.04 628.174C1064.18 628.174 1065.91 629.905 1065.91 632.041ZM1006.37 649.826C1008.5 649.826 1010.23 648.095 1010.23 645.959C1010.23 643.824 1008.5 642.093 1006.37 642.093C1004.23 642.093 1002.5 643.824 1002.5 645.959C1002.5 648.095 1004.23 649.826 1006.37 649.826ZM1006.37 663.744C1008.5 663.744 1010.23 662.013 1010.23 659.878C1010.23 657.743 1008.5 656.012 1006.37 656.012C1004.23 656.012 1002.5 657.743 1002.5 659.878C1002.5 662.013 1004.23 663.744 1006.37 663.744ZM1010.23 673.797C1010.23 675.932 1008.5 677.663 1006.37 677.663C1004.23 677.663 1002.5 675.932 1002.5 673.797C1002.5 671.661 1004.23 669.93 1006.37 669.93C1008.5 669.93 1010.23 671.661 1010.23 673.797ZM1006.37 691.581C1008.5 691.581 1010.23 689.85 1010.23 687.715C1010.23 685.58 1008.5 683.849 1006.37 683.849C1004.23 683.849 1002.5 685.58 1002.5 687.715C1002.5 689.85 1004.23 691.581 1006.37 691.581ZM1010.23 701.634C1010.23 703.769 1008.5 705.5 1006.37 705.5C1004.23 705.5 1002.5 703.769 1002.5 701.634C1002.5 699.498 1004.23 697.767 1006.37 697.767C1008.5 697.767 1010.23 699.498 1010.23 701.634ZM1020.28 649.826C1022.42 649.826 1024.15 648.095 1024.15 645.959C1024.15 643.824 1022.42 642.093 1020.28 642.093C1018.15 642.093 1016.42 643.824 1016.42 645.959C1016.42 648.095 1018.15 649.826 1020.28 649.826ZM1024.15 659.878C1024.15 662.013 1022.42 663.744 1020.28 663.744C1018.15 663.744 1016.42 662.013 1016.42 659.878C1016.42 657.743 1018.15 656.012 1020.28 656.012C1022.42 656.012 1024.15 657.743 1024.15 659.878ZM1020.28 677.663C1022.42 677.663 1024.15 675.932 1024.15 673.797C1024.15 671.661 1022.42 669.93 1020.28 669.93C1018.15 669.93 1016.42 671.661 1016.42 673.797C1016.42 675.932 1018.15 677.663 1020.28 677.663ZM1024.15 687.715C1024.15 689.85 1022.42 691.581 1020.28 691.581C1018.15 691.581 1016.42 689.85 1016.42 687.715C1016.42 685.58 1018.15 683.849 1020.28 683.849C1022.42 683.849 1024.15 685.58 1024.15 687.715ZM1020.28 705.5C1022.42 705.5 1024.15 703.769 1024.15 701.634C1024.15 699.498 1022.42 697.767 1020.28 697.767C1018.15 697.767 1016.42 699.498 1016.42 701.634C1016.42 703.769 1018.15 705.5 1020.28 705.5ZM1038.07 645.959C1038.07 648.095 1036.34 649.826 1034.2 649.826C1032.07 649.826 1030.34 648.095 1030.34 645.959C1030.34 643.824 1032.07 642.093 1034.2 642.093C1036.34 642.093 1038.07 643.824 1038.07 645.959ZM1034.2 663.744C1036.34 663.744 1038.07 662.013 1038.07 659.878C1038.07 657.743 1036.34 656.012 1034.2 656.012C1032.07 656.012 1030.34 657.743 1030.34 659.878C1030.34 662.013 1032.07 663.744 1034.2 663.744ZM1038.07 673.797C1038.07 675.932 1036.34 677.663 1034.2 677.663C1032.07 677.663 1030.34 675.932 1030.34 673.797C1030.34 671.661 1032.07 669.93 1034.2 669.93C1036.34 669.93 1038.07 671.661 1038.07 673.797ZM1034.2 691.581C1036.34 691.581 1038.07 689.85 1038.07 687.715C1038.07 685.58 1036.34 683.849 1034.2 683.849C1032.07 683.849 1030.34 685.58 1030.34 687.715C1030.34 689.85 1032.07 691.581 1034.2 691.581ZM1038.07 701.634C1038.07 703.769 1036.34 705.5 1034.2 705.5C1032.07 705.5 1030.34 703.769 1030.34 701.634C1030.34 699.498 1032.07 697.767 1034.2 697.767C1036.34 697.767 1038.07 699.498 1038.07 701.634ZM1048.12 649.826C1050.26 649.826 1051.99 648.095 1051.99 645.959C1051.99 643.824 1050.26 642.093 1048.12 642.093C1045.99 642.093 1044.26 643.824 1044.26 645.959C1044.26 648.095 1045.99 649.826 1048.12 649.826ZM1051.99 659.878C1051.99 662.013 1050.26 663.744 1048.12 663.744C1045.99 663.744 1044.26 662.013 1044.26 659.878C1044.26 657.743 1045.99 656.012 1048.12 656.012C1050.26 656.012 1051.99 657.743 1051.99 659.878ZM1048.12 677.663C1050.26 677.663 1051.99 675.932 1051.99 673.797C1051.99 671.661 1050.26 669.93 1048.12 669.93C1045.99 669.93 1044.26 671.661 1044.26 673.797C1044.26 675.932 1045.99 677.663 1048.12 677.663ZM1051.99 687.715C1051.99 689.85 1050.26 691.581 1048.12 691.581C1045.99 691.581 1044.26 689.85 1044.26 687.715C1044.26 685.58 1045.99 683.849 1048.12 683.849C1050.26 683.849 1051.99 685.58 1051.99 687.715ZM1048.12 705.5C1050.26 705.5 1051.99 703.769 1051.99 701.634C1051.99 699.498 1050.26 697.767 1048.12 697.767C1045.99 697.767 1044.26 699.498 1044.26 701.634C1044.26 703.769 1045.99 705.5 1048.12 705.5ZM1065.91 645.959C1065.91 648.095 1064.18 649.826 1062.04 649.826C1059.91 649.826 1058.17 648.095 1058.17 645.959C1058.17 643.824 1059.91 642.093 1062.04 642.093C1064.18 642.093 1065.91 643.824 1065.91 645.959ZM1062.04 663.744C1064.18 663.744 1065.91 662.013 1065.91 659.878C1065.91 657.743 1064.18 656.012 1062.04 656.012C1059.91 656.012 1058.17 657.743 1058.17 659.878C1058.17 662.013 1059.91 663.744 1062.04 663.744ZM1065.91 673.797C1065.91 675.932 1064.18 677.663 1062.04 677.663C1059.91 677.663 1058.17 675.932 1058.17 673.797C1058.17 671.661 1059.91 669.93 1062.04 669.93C1064.18 669.93 1065.91 671.661 1065.91 673.797ZM1062.04 691.581C1064.18 691.581 1065.91 689.85 1065.91 687.715C1065.91 685.58 1064.18 683.849 1062.04 683.849C1059.91 683.849 1058.17 685.58 1058.17 687.715C1058.17 689.85 1059.91 691.581 1062.04 691.581ZM1065.91 701.634C1065.91 703.769 1064.18 705.5 1062.04 705.5C1059.91 705.5 1058.17 703.769 1058.17 701.634C1058.17 699.498 1059.91 697.767 1062.04 697.767C1064.18 697.767 1065.91 699.498 1065.91 701.634ZM1079.83 645.959C1079.83 648.095 1078.09 649.826 1075.96 649.826C1073.82 649.826 1072.09 648.095 1072.09 645.959C1072.09 643.824 1073.82 642.093 1075.96 642.093C1078.09 642.093 1079.83 643.824 1079.83 645.959ZM1079.83 659.878C1079.83 662.013 1078.09 663.744 1075.96 663.744C1073.82 663.744 1072.09 662.013 1072.09 659.878C1072.09 657.743 1073.82 656.012 1075.96 656.012C1078.09 656.012 1079.83 657.743 1079.83 659.878ZM1075.96 677.663C1078.09 677.663 1079.83 675.932 1079.83 673.797C1079.83 671.661 1078.09 669.93 1075.96 669.93C1073.82 669.93 1072.09 671.661 1072.09 673.797C1072.09 675.932 1073.82 677.663 1075.96 677.663ZM1079.83 687.715C1079.83 689.85 1078.09 691.581 1075.96 691.581C1073.82 691.581 1072.09 689.85 1072.09 687.715C1072.09 685.58 1073.82 683.849 1075.96 683.849C1078.09 683.849 1079.83 685.58 1079.83 687.715ZM1075.96 705.5C1078.09 705.5 1079.83 703.769 1079.83 701.634C1079.83 699.498 1078.09 697.767 1075.96 697.767C1073.82 697.767 1072.09 699.498 1072.09 701.634C1072.09 703.769 1073.82 705.5 1075.96 705.5ZM1093.74 645.959C1093.74 648.095 1092.01 649.826 1089.88 649.826C1087.74 649.826 1086.01 648.095 1086.01 645.959C1086.01 643.824 1087.74 642.093 1089.88 642.093C1092.01 642.093 1093.74 643.824 1093.74 645.959ZM1089.88 663.744C1092.01 663.744 1093.74 662.013 1093.74 659.878C1093.74 657.743 1092.01 656.012 1089.88 656.012C1087.74 656.012 1086.01 657.743 1086.01 659.878C1086.01 662.013 1087.74 663.744 1089.88 663.744ZM1093.74 673.797C1093.74 675.932 1092.01 677.663 1089.88 677.663C1087.74 677.663 1086.01 675.932 1086.01 673.797C1086.01 671.661 1087.74 669.93 1089.88 669.93C1092.01 669.93 1093.74 671.661 1093.74 673.797ZM1089.88 691.581C1092.01 691.581 1093.74 689.85 1093.74 687.715C1093.74 685.58 1092.01 683.849 1089.88 683.849C1087.74 683.849 1086.01 685.58 1086.01 687.715C1086.01 689.85 1087.74 691.581 1089.88 691.581ZM1093.74 701.634C1093.74 703.769 1092.01 705.5 1089.88 705.5C1087.74 705.5 1086.01 703.769 1086.01 701.634C1086.01 699.498 1087.74 697.767 1089.88 697.767C1092.01 697.767 1093.74 699.498 1093.74 701.634ZM1103.8 649.826C1105.93 649.826 1107.66 648.095 1107.66 645.959C1107.66 643.824 1105.93 642.093 1103.8 642.093C1101.66 642.093 1099.93 643.824 1099.93 645.959C1099.93 648.095 1101.66 649.826 1103.8 649.826ZM1107.66 659.878C1107.66 662.013 1105.93 663.744 1103.8 663.744C1101.66 663.744 1099.93 662.013 1099.93 659.878C1099.93 657.743 1101.66 656.012 1103.8 656.012C1105.93 656.012 1107.66 657.743 1107.66 659.878ZM1103.8 677.663C1105.93 677.663 1107.66 675.932 1107.66 673.797C1107.66 671.661 1105.93 669.93 1103.8 669.93C1101.66 669.93 1099.93 671.661 1099.93 673.797C1099.93 675.932 1101.66 677.663 1103.8 677.663ZM1107.66 687.715C1107.66 689.85 1105.93 691.581 1103.8 691.581C1101.66 691.581 1099.93 689.85 1099.93 687.715C1099.93 685.58 1101.66 683.849 1103.8 683.849C1105.93 683.849 1107.66 685.58 1107.66 687.715ZM1103.8 705.5C1105.93 705.5 1107.66 703.769 1107.66 701.634C1107.66 699.498 1105.93 697.767 1103.8 697.767C1101.66 697.767 1099.93 699.498 1099.93 701.634C1099.93 703.769 1101.66 705.5 1103.8 705.5ZM1121.58 645.959C1121.58 648.095 1119.85 649.826 1117.72 649.826C1115.58 649.826 1113.85 648.095 1113.85 645.959C1113.85 643.824 1115.58 642.093 1117.72 642.093C1119.85 642.093 1121.58 643.824 1121.58 645.959ZM1117.72 663.744C1119.85 663.744 1121.58 662.013 1121.58 659.878C1121.58 657.743 1119.85 656.012 1117.72 656.012C1115.58 656.012 1113.85 657.743 1113.85 659.878C1113.85 662.013 1115.58 663.744 1117.72 663.744ZM1121.58 673.797C1121.58 675.932 1119.85 677.663 1117.72 677.663C1115.58 677.663 1113.85 675.932 1113.85 673.797C1113.85 671.661 1115.58 669.93 1117.72 669.93C1119.85 669.93 1121.58 671.661 1121.58 673.797ZM1117.72 691.581C1119.85 691.581 1121.58 689.85 1121.58 687.715C1121.58 685.58 1119.85 683.849 1117.72 683.849C1115.58 683.849 1113.85 685.58 1113.85 687.715C1113.85 689.85 1115.58 691.581 1117.72 691.581ZM1121.58 701.634C1121.58 703.769 1119.85 705.5 1117.72 705.5C1115.58 705.5 1113.85 703.769 1113.85 701.634C1113.85 699.498 1115.58 697.767 1117.72 697.767C1119.85 697.767 1121.58 699.498 1121.58 701.634ZM1131.63 649.826C1133.77 649.826 1135.5 648.095 1135.5 645.959C1135.5 643.824 1133.77 642.093 1131.63 642.093C1129.5 642.093 1127.77 643.824 1127.77 645.959C1127.77 648.095 1129.5 649.826 1131.63 649.826ZM1135.5 659.878C1135.5 662.013 1133.77 663.744 1131.63 663.744C1129.5 663.744 1127.77 662.013 1127.77 659.878C1127.77 657.743 1129.5 656.012 1131.63 656.012C1133.77 656.012 1135.5 657.743 1135.5 659.878ZM1131.63 677.663C1133.77 677.663 1135.5 675.932 1135.5 673.797C1135.5 671.661 1133.77 669.93 1131.63 669.93C1129.5 669.93 1127.77 671.661 1127.77 673.797C1127.77 675.932 1129.5 677.663 1131.63 677.663ZM1135.5 687.715C1135.5 689.85 1133.77 691.581 1131.63 691.581C1129.5 691.581 1127.77 689.85 1127.77 687.715C1127.77 685.58 1129.5 683.849 1131.63 683.849C1133.77 683.849 1135.5 685.58 1135.5 687.715ZM1131.63 705.5C1133.77 705.5 1135.5 703.769 1135.5 701.634C1135.5 699.498 1133.77 697.767 1131.63 697.767C1129.5 697.767 1127.77 699.498 1127.77 701.634C1127.77 703.769 1129.5 705.5 1131.63 705.5ZM1075.96 580.233C1078.09 580.233 1079.83 578.502 1079.83 576.366C1079.83 574.231 1078.09 572.5 1075.96 572.5C1073.82 572.5 1072.09 574.231 1072.09 576.366C1072.09 578.502 1073.82 580.233 1075.96 580.233ZM1075.96 594.151C1078.09 594.151 1079.83 592.42 1079.83 590.285C1079.83 588.15 1078.09 586.419 1075.96 586.419C1073.82 586.419 1072.09 588.15 1072.09 590.285C1072.09 592.42 1073.82 594.151 1075.96 594.151ZM1079.83 604.203C1079.83 606.339 1078.09 608.07 1075.96 608.07C1073.82 608.07 1072.09 606.339 1072.09 604.203C1072.09 602.068 1073.82 600.337 1075.96 600.337C1078.09 600.337 1079.83 602.068 1079.83 604.203ZM1075.96 621.988C1078.09 621.988 1079.83 620.257 1079.83 618.122C1079.83 615.987 1078.09 614.256 1075.96 614.256C1073.82 614.256 1072.09 615.987 1072.09 618.122C1072.09 620.257 1073.82 621.988 1075.96 621.988ZM1079.83 632.041C1079.83 634.176 1078.09 635.907 1075.96 635.907C1073.82 635.907 1072.09 634.176 1072.09 632.041C1072.09 629.905 1073.82 628.174 1075.96 628.174C1078.09 628.174 1079.83 629.905 1079.83 632.041ZM1089.88 580.233C1092.01 580.233 1093.74 578.502 1093.74 576.366C1093.74 574.231 1092.01 572.5 1089.88 572.5C1087.74 572.5 1086.01 574.231 1086.01 576.366C1086.01 578.502 1087.74 580.233 1089.88 580.233ZM1093.74 590.285C1093.74 592.42 1092.01 594.151 1089.88 594.151C1087.74 594.151 1086.01 592.42 1086.01 590.285C1086.01 588.15 1087.74 586.419 1089.88 586.419C1092.01 586.419 1093.74 588.15 1093.74 590.285ZM1089.88 608.07C1092.01 608.07 1093.74 606.339 1093.74 604.203C1093.74 602.068 1092.01 600.337 1089.88 600.337C1087.74 600.337 1086.01 602.068 1086.01 604.203C1086.01 606.339 1087.74 608.07 1089.88 608.07ZM1093.74 618.122C1093.74 620.257 1092.01 621.988 1089.88 621.988C1087.74 621.988 1086.01 620.257 1086.01 618.122C1086.01 615.987 1087.74 614.256 1089.88 614.256C1092.01 614.256 1093.74 615.987 1093.74 618.122ZM1089.88 635.907C1092.01 635.907 1093.74 634.176 1093.74 632.041C1093.74 629.905 1092.01 628.174 1089.88 628.174C1087.74 628.174 1086.01 629.905 1086.01 632.041C1086.01 634.176 1087.74 635.907 1089.88 635.907ZM1107.66 576.366C1107.66 578.502 1105.93 580.233 1103.8 580.233C1101.66 580.233 1099.93 578.502 1099.93 576.366C1099.93 574.231 1101.66 572.5 1103.8 572.5C1105.93 572.5 1107.66 574.231 1107.66 576.366ZM1103.8 594.151C1105.93 594.151 1107.66 592.42 1107.66 590.285C1107.66 588.15 1105.93 586.419 1103.8 586.419C1101.66 586.419 1099.93 588.15 1099.93 590.285C1099.93 592.42 1101.66 594.151 1103.8 594.151ZM1107.66 604.203C1107.66 606.339 1105.93 608.07 1103.8 608.07C1101.66 608.07 1099.93 606.339 1099.93 604.203C1099.93 602.068 1101.66 600.337 1103.8 600.337C1105.93 600.337 1107.66 602.068 1107.66 604.203ZM1103.8 621.988C1105.93 621.988 1107.66 620.257 1107.66 618.122C1107.66 615.987 1105.93 614.256 1103.8 614.256C1101.66 614.256 1099.93 615.987 1099.93 618.122C1099.93 620.257 1101.66 621.988 1103.8 621.988ZM1107.66 632.041C1107.66 634.176 1105.93 635.907 1103.8 635.907C1101.66 635.907 1099.93 634.176 1099.93 632.041C1099.93 629.905 1101.66 628.174 1103.8 628.174C1105.93 628.174 1107.66 629.905 1107.66 632.041ZM1117.72 580.233C1119.85 580.233 1121.58 578.502 1121.58 576.366C1121.58 574.231 1119.85 572.5 1117.72 572.5C1115.58 572.5 1113.85 574.231 1113.85 576.366C1113.85 578.502 1115.58 580.233 1117.72 580.233ZM1121.58 590.285C1121.58 592.42 1119.85 594.151 1117.72 594.151C1115.58 594.151 1113.85 592.42 1113.85 590.285C1113.85 588.15 1115.58 586.419 1117.72 586.419C1119.85 586.419 1121.58 588.15 1121.58 590.285ZM1117.72 608.07C1119.85 608.07 1121.58 606.339 1121.58 604.203C1121.58 602.068 1119.85 600.337 1117.72 600.337C1115.58 600.337 1113.85 602.068 1113.85 604.203C1113.85 606.339 1115.58 608.07 1117.72 608.07ZM1121.58 618.122C1121.58 620.257 1119.85 621.988 1117.72 621.988C1115.58 621.988 1113.85 620.257 1113.85 618.122C1113.85 615.987 1115.58 614.256 1117.72 614.256C1119.85 614.256 1121.58 615.987 1121.58 618.122ZM1117.72 635.907C1119.85 635.907 1121.58 634.176 1121.58 632.041C1121.58 629.905 1119.85 628.174 1117.72 628.174C1115.58 628.174 1113.85 629.905 1113.85 632.041C1113.85 634.176 1115.58 635.907 1117.72 635.907ZM1135.5 576.366C1135.5 578.502 1133.77 580.233 1131.63 580.233C1129.5 580.233 1127.77 578.502 1127.77 576.366C1127.77 574.231 1129.5 572.5 1131.63 572.5C1133.77 572.5 1135.5 574.231 1135.5 576.366ZM1131.63 594.151C1133.77 594.151 1135.5 592.42 1135.5 590.285C1135.5 588.15 1133.77 586.419 1131.63 586.419C1129.5 586.419 1127.77 588.15 1127.77 590.285C1127.77 592.42 1129.5 594.151 1131.63 594.151ZM1135.5 604.203C1135.5 606.339 1133.77 608.07 1131.63 608.07C1129.5 608.07 1127.77 606.339 1127.77 604.203C1127.77 602.068 1129.5 600.337 1131.63 600.337C1133.77 600.337 1135.5 602.068 1135.5 604.203ZM1131.63 621.988C1133.77 621.988 1135.5 620.257 1135.5 618.122C1135.5 615.987 1133.77 614.256 1131.63 614.256C1129.5 614.256 1127.77 615.987 1127.77 618.122C1127.77 620.257 1129.5 621.988 1131.63 621.988ZM1135.5 632.041C1135.5 634.176 1133.77 635.907 1131.63 635.907C1129.5 635.907 1127.77 634.176 1127.77 632.041C1127.77 629.905 1129.5 628.174 1131.63 628.174C1133.77 628.174 1135.5 629.905 1135.5 632.041Z" fill="#FFF4F4"/>
</svg>
