<svg width="230" height="230" viewBox="0 0 230 230" fill="none" xmlns="http://www.w3.org/2000/svg">
<path fill-rule="evenodd" clip-rule="evenodd" d="M6.68605 13.3721C10.3787 13.3721 13.3721 10.3787 13.3721 6.68605C13.3721 2.99344 10.3787 0 6.68605 0C2.99344 0 0 2.99344 0 6.68605C0 10.3787 2.99344 13.3721 6.68605 13.3721ZM6.68605 37.4419C10.3787 37.4419 13.3721 34.4484 13.3721 30.7558C13.3721 27.0632 10.3787 24.0698 6.68605 24.0698C2.99344 24.0698 0 27.0632 0 30.7558C0 34.4484 2.99344 37.4419 6.68605 37.4419ZM13.3721 54.8256C13.3721 58.5182 10.3787 61.5116 6.68605 61.5116C2.99344 61.5116 0 58.5182 0 54.8256C0 51.133 2.99344 48.1395 6.68605 48.1395C10.3787 48.1395 13.3721 51.133 13.3721 54.8256ZM6.68605 85.5814C10.3787 85.5814 13.3721 82.588 13.3721 78.8953C13.3721 75.2027 10.3787 72.2093 6.68605 72.2093C2.99344 72.2093 0 75.2027 0 78.8953C0 82.588 2.99344 85.5814 6.68605 85.5814ZM13.3721 102.965C13.3721 106.658 10.3787 109.651 6.68605 109.651C2.99344 109.651 0 106.658 0 102.965C0 99.2725 2.99344 96.2791 6.68605 96.2791C10.3787 96.2791 13.3721 99.2725 13.3721 102.965ZM30.7558 13.3721C34.4484 13.3721 37.4419 10.3787 37.4419 6.68605C37.4419 2.99344 34.4484 0 30.7558 0C27.0632 0 24.0698 2.99344 24.0698 6.68605C24.0698 10.3787 27.0632 13.3721 30.7558 13.3721ZM37.4419 30.7558C37.4419 34.4484 34.4484 37.4419 30.7558 37.4419C27.0632 37.4419 24.0698 34.4484 24.0698 30.7558C24.0698 27.0632 27.0632 24.0698 30.7558 24.0698C34.4484 24.0698 37.4419 27.0632 37.4419 30.7558ZM30.7558 61.5116C34.4484 61.5116 37.4419 58.5182 37.4419 54.8256C37.4419 51.133 34.4484 48.1395 30.7558 48.1395C27.0632 48.1395 24.0698 51.133 24.0698 54.8256C24.0698 58.5182 27.0632 61.5116 30.7558 61.5116ZM37.4419 78.8953C37.4419 82.588 34.4484 85.5814 30.7558 85.5814C27.0632 85.5814 24.0698 82.588 24.0698 78.8953C24.0698 75.2027 27.0632 72.2093 30.7558 72.2093C34.4484 72.2093 37.4419 75.2027 37.4419 78.8953ZM30.7558 109.651C34.4484 109.651 37.4419 106.658 37.4419 102.965C37.4419 99.2725 34.4484 96.2791 30.7558 96.2791C27.0632 96.2791 24.0698 99.2725 24.0698 102.965C24.0698 106.658 27.0632 109.651 30.7558 109.651ZM61.5116 6.68605C61.5116 10.3787 58.5182 13.3721 54.8256 13.3721C51.133 13.3721 48.1395 10.3787 48.1395 6.68605C48.1395 2.99344 51.133 0 54.8256 0C58.5182 0 61.5116 2.99344 61.5116 6.68605ZM54.8256 37.4419C58.5182 37.4419 61.5116 34.4484 61.5116 30.7558C61.5116 27.0632 58.5182 24.0698 54.8256 24.0698C51.133 24.0698 48.1395 27.0632 48.1395 30.7558C48.1395 34.4484 51.133 37.4419 54.8256 37.4419ZM61.5116 54.8256C61.5116 58.5182 58.5182 61.5116 54.8256 61.5116C51.133 61.5116 48.1395 58.5182 48.1395 54.8256C48.1395 51.133 51.133 48.1395 54.8256 48.1395C58.5182 48.1395 61.5116 51.133 61.5116 54.8256ZM54.8256 85.5814C58.5182 85.5814 61.5116 82.588 61.5116 78.8953C61.5116 75.2027 58.5182 72.2093 54.8256 72.2093C51.133 72.2093 48.1395 75.2027 48.1395 78.8953C48.1395 82.588 51.133 85.5814 54.8256 85.5814ZM61.5116 102.965C61.5116 106.658 58.5182 109.651 54.8256 109.651C51.133 109.651 48.1395 106.658 48.1395 102.965C48.1395 99.2725 51.133 96.2791 54.8256 96.2791C58.5182 96.2791 61.5116 99.2725 61.5116 102.965ZM78.8953 13.3721C82.588 13.3721 85.5814 10.3787 85.5814 6.68605C85.5814 2.99344 82.588 0 78.8953 0C75.2027 0 72.2093 2.99344 72.2093 6.68605C72.2093 10.3787 75.2027 13.3721 78.8953 13.3721ZM85.5814 30.7558C85.5814 34.4484 82.588 37.4419 78.8953 37.4419C75.2027 37.4419 72.2093 34.4484 72.2093 30.7558C72.2093 27.0632 75.2027 24.0698 78.8953 24.0698C82.588 24.0698 85.5814 27.0632 85.5814 30.7558ZM78.8953 61.5116C82.588 61.5116 85.5814 58.5182 85.5814 54.8256C85.5814 51.133 82.588 48.1395 78.8953 48.1395C75.2027 48.1395 72.2093 51.133 72.2093 54.8256C72.2093 58.5182 75.2027 61.5116 78.8953 61.5116ZM85.5814 78.8953C85.5814 82.588 82.588 85.5814 78.8953 85.5814C75.2027 85.5814 72.2093 82.588 72.2093 78.8953C72.2093 75.2027 75.2027 72.2093 78.8953 72.2093C82.588 72.2093 85.5814 75.2027 85.5814 78.8953ZM78.8953 109.651C82.588 109.651 85.5814 106.658 85.5814 102.965C85.5814 99.2725 82.588 96.2791 78.8953 96.2791C75.2027 96.2791 72.2093 99.2725 72.2093 102.965C72.2093 106.658 75.2027 109.651 78.8953 109.651ZM109.651 6.68605C109.651 10.3787 106.658 13.3721 102.965 13.3721C99.2725 13.3721 96.2791 10.3787 96.2791 6.68605C96.2791 2.99344 99.2725 0 102.965 0C106.658 0 109.651 2.99344 109.651 6.68605ZM102.965 37.4419C106.658 37.4419 109.651 34.4484 109.651 30.7558C109.651 27.0632 106.658 24.0698 102.965 24.0698C99.2725 24.0698 96.2791 27.0632 96.2791 30.7558C96.2791 34.4484 99.2725 37.4419 102.965 37.4419ZM109.651 54.8256C109.651 58.5182 106.658 61.5116 102.965 61.5116C99.2725 61.5116 96.2791 58.5182 96.2791 54.8256C96.2791 51.133 99.2725 48.1395 102.965 48.1395C106.658 48.1395 109.651 51.133 109.651 54.8256ZM102.965 85.5814C106.658 85.5814 109.651 82.588 109.651 78.8953C109.651 75.2027 106.658 72.2093 102.965 72.2093C99.2725 72.2093 96.2791 75.2027 96.2791 78.8953C96.2791 82.588 99.2725 85.5814 102.965 85.5814ZM109.651 102.965C109.651 106.658 106.658 109.651 102.965 109.651C99.2725 109.651 96.2791 106.658 96.2791 102.965C96.2791 99.2725 99.2725 96.2791 102.965 96.2791C106.658 96.2791 109.651 99.2725 109.651 102.965ZM6.68605 133.721C10.3787 133.721 13.3721 130.727 13.3721 127.035C13.3721 123.342 10.3787 120.349 6.68605 120.349C2.99344 120.349 0 123.342 0 127.035C0 130.727 2.99344 133.721 6.68605 133.721ZM6.68605 157.791C10.3787 157.791 13.3721 154.797 13.3721 151.105C13.3721 147.412 10.3787 144.419 6.68605 144.419C2.99344 144.419 0 147.412 0 151.105C0 154.797 2.99344 157.791 6.68605 157.791ZM13.3721 175.174C13.3721 178.867 10.3787 181.86 6.68605 181.86C2.99344 181.86 0 178.867 0 175.174C0 171.482 2.99344 168.488 6.68605 168.488C10.3787 168.488 13.3721 171.482 13.3721 175.174ZM6.68605 205.93C10.3787 205.93 13.3721 202.937 13.3721 199.244C13.3721 195.552 10.3787 192.558 6.68605 192.558C2.99344 192.558 0 195.552 0 199.244C0 202.937 2.99344 205.93 6.68605 205.93ZM13.3721 223.314C13.3721 227.007 10.3787 230 6.68605 230C2.99344 230 0 227.007 0 223.314C0 219.621 2.99344 216.628 6.68605 216.628C10.3787 216.628 13.3721 219.621 13.3721 223.314ZM30.7558 133.721C34.4484 133.721 37.4419 130.727 37.4419 127.035C37.4419 123.342 34.4484 120.349 30.7558 120.349C27.0632 120.349 24.0698 123.342 24.0698 127.035C24.0698 130.727 27.0632 133.721 30.7558 133.721ZM37.4419 151.105C37.4419 154.797 34.4484 157.791 30.7558 157.791C27.0632 157.791 24.0698 154.797 24.0698 151.105C24.0698 147.412 27.0632 144.419 30.7558 144.419C34.4484 144.419 37.4419 147.412 37.4419 151.105ZM30.7558 181.86C34.4484 181.86 37.4419 178.867 37.4419 175.174C37.4419 171.482 34.4484 168.488 30.7558 168.488C27.0632 168.488 24.0698 171.482 24.0698 175.174C24.0698 178.867 27.0632 181.86 30.7558 181.86ZM37.4419 199.244C37.4419 202.937 34.4484 205.93 30.7558 205.93C27.0632 205.93 24.0698 202.937 24.0698 199.244C24.0698 195.552 27.0632 192.558 30.7558 192.558C34.4484 192.558 37.4419 195.552 37.4419 199.244ZM30.7558 230C34.4484 230 37.4419 227.007 37.4419 223.314C37.4419 219.621 34.4484 216.628 30.7558 216.628C27.0632 216.628 24.0698 219.621 24.0698 223.314C24.0698 227.007 27.0632 230 30.7558 230ZM61.5116 127.035C61.5116 130.727 58.5182 133.721 54.8256 133.721C51.133 133.721 48.1395 130.727 48.1395 127.035C48.1395 123.342 51.133 120.349 54.8256 120.349C58.5182 120.349 61.5116 123.342 61.5116 127.035ZM54.8256 157.791C58.5182 157.791 61.5116 154.797 61.5116 151.105C61.5116 147.412 58.5182 144.419 54.8256 144.419C51.133 144.419 48.1395 147.412 48.1395 151.105C48.1395 154.797 51.133 157.791 54.8256 157.791ZM61.5116 175.174C61.5116 178.867 58.5182 181.86 54.8256 181.86C51.133 181.86 48.1395 178.867 48.1395 175.174C48.1395 171.482 51.133 168.488 54.8256 168.488C58.5182 168.488 61.5116 171.482 61.5116 175.174ZM54.8256 205.93C58.5182 205.93 61.5116 202.937 61.5116 199.244C61.5116 195.552 58.5182 192.558 54.8256 192.558C51.133 192.558 48.1395 195.552 48.1395 199.244C48.1395 202.937 51.133 205.93 54.8256 205.93ZM61.5116 223.314C61.5116 227.007 58.5182 230 54.8256 230C51.133 230 48.1395 227.007 48.1395 223.314C48.1395 219.621 51.133 216.628 54.8256 216.628C58.5182 216.628 61.5116 219.621 61.5116 223.314ZM78.8953 133.721C82.588 133.721 85.5814 130.727 85.5814 127.035C85.5814 123.342 82.588 120.349 78.8953 120.349C75.2027 120.349 72.2093 123.342 72.2093 127.035C72.2093 130.727 75.2027 133.721 78.8953 133.721ZM85.5814 151.105C85.5814 154.797 82.588 157.791 78.8953 157.791C75.2027 157.791 72.2093 154.797 72.2093 151.105C72.2093 147.412 75.2027 144.419 78.8953 144.419C82.588 144.419 85.5814 147.412 85.5814 151.105ZM78.8953 181.86C82.588 181.86 85.5814 178.867 85.5814 175.174C85.5814 171.482 82.588 168.488 78.8953 168.488C75.2027 168.488 72.2093 171.482 72.2093 175.174C72.2093 178.867 75.2027 181.86 78.8953 181.86ZM85.5814 199.244C85.5814 202.937 82.588 205.93 78.8953 205.93C75.2027 205.93 72.2093 202.937 72.2093 199.244C72.2093 195.552 75.2027 192.558 78.8953 192.558C82.588 192.558 85.5814 195.552 85.5814 199.244ZM78.8953 230C82.588 230 85.5814 227.007 85.5814 223.314C85.5814 219.621 82.588 216.628 78.8953 216.628C75.2027 216.628 72.2093 219.621 72.2093 223.314C72.2093 227.007 75.2027 230 78.8953 230ZM109.651 127.035C109.651 130.727 106.658 133.721 102.965 133.721C99.2725 133.721 96.2791 130.727 96.2791 127.035C96.2791 123.342 99.2725 120.349 102.965 120.349C106.658 120.349 109.651 123.342 109.651 127.035ZM102.965 157.791C106.658 157.791 109.651 154.797 109.651 151.105C109.651 147.412 106.658 144.419 102.965 144.419C99.2725 144.419 96.2791 147.412 96.2791 151.105C96.2791 154.797 99.2725 157.791 102.965 157.791ZM109.651 175.174C109.651 178.867 106.658 181.86 102.965 181.86C99.2725 181.86 96.2791 178.867 96.2791 175.174C96.2791 171.482 99.2725 168.488 102.965 168.488C106.658 168.488 109.651 171.482 109.651 175.174ZM102.965 205.93C106.658 205.93 109.651 202.937 109.651 199.244C109.651 195.552 106.658 192.558 102.965 192.558C99.2725 192.558 96.2791 195.552 96.2791 199.244C96.2791 202.937 99.2725 205.93 102.965 205.93ZM109.651 223.314C109.651 227.007 106.658 230 102.965 230C99.2725 230 96.2791 227.007 96.2791 223.314C96.2791 219.621 99.2725 216.628 102.965 216.628C106.658 216.628 109.651 219.621 109.651 223.314ZM133.721 127.035C133.721 130.727 130.727 133.721 127.035 133.721C123.342 133.721 120.349 130.727 120.349 127.035C120.349 123.342 123.342 120.349 127.035 120.349C130.727 120.349 133.721 123.342 133.721 127.035ZM133.721 151.105C133.721 154.797 130.727 157.791 127.035 157.791C123.342 157.791 120.349 154.797 120.349 151.105C120.349 147.412 123.342 144.419 127.035 144.419C130.727 144.419 133.721 147.412 133.721 151.105ZM127.035 181.86C130.727 181.86 133.721 178.867 133.721 175.174C133.721 171.482 130.727 168.488 127.035 168.488C123.342 168.488 120.349 171.482 120.349 175.174C120.349 178.867 123.342 181.86 127.035 181.86ZM133.721 199.244C133.721 202.937 130.727 205.93 127.035 205.93C123.342 205.93 120.349 202.937 120.349 199.244C120.349 195.552 123.342 192.558 127.035 192.558C130.727 192.558 133.721 195.552 133.721 199.244ZM127.035 230C130.727 230 133.721 227.007 133.721 223.314C133.721 219.621 130.727 216.628 127.035 216.628C123.342 216.628 120.349 219.621 120.349 223.314C120.349 227.007 123.342 230 127.035 230ZM157.791 127.035C157.791 130.727 154.797 133.721 151.105 133.721C147.412 133.721 144.419 130.727 144.419 127.035C144.419 123.342 147.412 120.349 151.105 120.349C154.797 120.349 157.791 123.342 157.791 127.035ZM151.105 157.791C154.797 157.791 157.791 154.797 157.791 151.105C157.791 147.412 154.797 144.419 151.105 144.419C147.412 144.419 144.419 147.412 144.419 151.105C144.419 154.797 147.412 157.791 151.105 157.791ZM157.791 175.174C157.791 178.867 154.797 181.86 151.105 181.86C147.412 181.86 144.419 178.867 144.419 175.174C144.419 171.482 147.412 168.488 151.105 168.488C154.797 168.488 157.791 171.482 157.791 175.174ZM151.105 205.93C154.797 205.93 157.791 202.937 157.791 199.244C157.791 195.552 154.797 192.558 151.105 192.558C147.412 192.558 144.419 195.552 144.419 199.244C144.419 202.937 147.412 205.93 151.105 205.93ZM157.791 223.314C157.791 227.007 154.797 230 151.105 230C147.412 230 144.419 227.007 144.419 223.314C144.419 219.621 147.412 216.628 151.105 216.628C154.797 216.628 157.791 219.621 157.791 223.314ZM175.174 133.721C178.867 133.721 181.86 130.727 181.86 127.035C181.86 123.342 178.867 120.349 175.174 120.349C171.482 120.349 168.488 123.342 168.488 127.035C168.488 130.727 171.482 133.721 175.174 133.721ZM181.86 151.105C181.86 154.797 178.867 157.791 175.174 157.791C171.482 157.791 168.488 154.797 168.488 151.105C168.488 147.412 171.482 144.419 175.174 144.419C178.867 144.419 181.86 147.412 181.86 151.105ZM175.174 181.86C178.867 181.86 181.86 178.867 181.86 175.174C181.86 171.482 178.867 168.488 175.174 168.488C171.482 168.488 168.488 171.482 168.488 175.174C168.488 178.867 171.482 181.86 175.174 181.86ZM181.86 199.244C181.86 202.937 178.867 205.93 175.174 205.93C171.482 205.93 168.488 202.937 168.488 199.244C168.488 195.552 171.482 192.558 175.174 192.558C178.867 192.558 181.86 195.552 181.86 199.244ZM175.174 230C178.867 230 181.86 227.007 181.86 223.314C181.86 219.621 178.867 216.628 175.174 216.628C171.482 216.628 168.488 219.621 168.488 223.314C168.488 227.007 171.482 230 175.174 230ZM205.93 127.035C205.93 130.727 202.937 133.721 199.244 133.721C195.552 133.721 192.558 130.727 192.558 127.035C192.558 123.342 195.552 120.349 199.244 120.349C202.937 120.349 205.93 123.342 205.93 127.035ZM199.244 157.791C202.937 157.791 205.93 154.797 205.93 151.105C205.93 147.412 202.937 144.419 199.244 144.419C195.552 144.419 192.558 147.412 192.558 151.105C192.558 154.797 195.552 157.791 199.244 157.791ZM205.93 175.174C205.93 178.867 202.937 181.86 199.244 181.86C195.552 181.86 192.558 178.867 192.558 175.174C192.558 171.482 195.552 168.488 199.244 168.488C202.937 168.488 205.93 171.482 205.93 175.174ZM199.244 205.93C202.937 205.93 205.93 202.937 205.93 199.244C205.93 195.552 202.937 192.558 199.244 192.558C195.552 192.558 192.558 195.552 192.558 199.244C192.558 202.937 195.552 205.93 199.244 205.93ZM205.93 223.314C205.93 227.007 202.937 230 199.244 230C195.552 230 192.558 227.007 192.558 223.314C192.558 219.621 195.552 216.628 199.244 216.628C202.937 216.628 205.93 219.621 205.93 223.314ZM223.314 133.721C227.007 133.721 230 130.727 230 127.035C230 123.342 227.007 120.349 223.314 120.349C219.621 120.349 216.628 123.342 216.628 127.035C216.628 130.727 219.621 133.721 223.314 133.721ZM230 151.105C230 154.797 227.007 157.791 223.314 157.791C219.621 157.791 216.628 154.797 216.628 151.105C216.628 147.412 219.621 144.419 223.314 144.419C227.007 144.419 230 147.412 230 151.105ZM223.314 181.86C227.007 181.86 230 178.867 230 175.174C230 171.482 227.007 168.488 223.314 168.488C219.621 168.488 216.628 171.482 216.628 175.174C216.628 178.867 219.621 181.86 223.314 181.86ZM230 199.244C230 202.937 227.007 205.93 223.314 205.93C219.621 205.93 216.628 202.937 216.628 199.244C216.628 195.552 219.621 192.558 223.314 192.558C227.007 192.558 230 195.552 230 199.244ZM223.314 230C227.007 230 230 227.007 230 223.314C230 219.621 227.007 216.628 223.314 216.628C219.621 216.628 216.628 219.621 216.628 223.314C216.628 227.007 219.621 230 223.314 230ZM127.035 13.3721C130.727 13.3721 133.721 10.3787 133.721 6.68605C133.721 2.99344 130.727 0 127.035 0C123.342 0 120.349 2.99344 120.349 6.68605C120.349 10.3787 123.342 13.3721 127.035 13.3721ZM127.035 37.4419C130.727 37.4419 133.721 34.4484 133.721 30.7558C133.721 27.0632 130.727 24.0698 127.035 24.0698C123.342 24.0698 120.349 27.0632 120.349 30.7558C120.349 34.4484 123.342 37.4419 127.035 37.4419ZM133.721 54.8256C133.721 58.5182 130.727 61.5116 127.035 61.5116C123.342 61.5116 120.349 58.5182 120.349 54.8256C120.349 51.133 123.342 48.1395 127.035 48.1395C130.727 48.1395 133.721 51.133 133.721 54.8256ZM127.035 85.5814C130.727 85.5814 133.721 82.588 133.721 78.8953C133.721 75.2027 130.727 72.2093 127.035 72.2093C123.342 72.2093 120.349 75.2027 120.349 78.8953C120.349 82.588 123.342 85.5814 127.035 85.5814ZM133.721 102.965C133.721 106.658 130.727 109.651 127.035 109.651C123.342 109.651 120.349 106.658 120.349 102.965C120.349 99.2725 123.342 96.2791 127.035 96.2791C130.727 96.2791 133.721 99.2725 133.721 102.965ZM151.105 13.3721C154.797 13.3721 157.791 10.3787 157.791 6.68605C157.791 2.99344 154.797 0 151.105 0C147.412 0 144.419 2.99344 144.419 6.68605C144.419 10.3787 147.412 13.3721 151.105 13.3721ZM157.791 30.7558C157.791 34.4484 154.797 37.4419 151.105 37.4419C147.412 37.4419 144.419 34.4484 144.419 30.7558C144.419 27.0632 147.412 24.0698 151.105 24.0698C154.797 24.0698 157.791 27.0632 157.791 30.7558ZM151.105 61.5116C154.797 61.5116 157.791 58.5182 157.791 54.8256C157.791 51.133 154.797 48.1395 151.105 48.1395C147.412 48.1395 144.419 51.133 144.419 54.8256C144.419 58.5182 147.412 61.5116 151.105 61.5116ZM157.791 78.8953C157.791 82.588 154.797 85.5814 151.105 85.5814C147.412 85.5814 144.419 82.588 144.419 78.8953C144.419 75.2027 147.412 72.2093 151.105 72.2093C154.797 72.2093 157.791 75.2027 157.791 78.8953ZM151.105 109.651C154.797 109.651 157.791 106.658 157.791 102.965C157.791 99.2725 154.797 96.2791 151.105 96.2791C147.412 96.2791 144.419 99.2725 144.419 102.965C144.419 106.658 147.412 109.651 151.105 109.651ZM181.86 6.68605C181.86 10.3787 178.867 13.3721 175.174 13.3721C171.482 13.3721 168.488 10.3787 168.488 6.68605C168.488 2.99344 171.482 0 175.174 0C178.867 0 181.86 2.99344 181.86 6.68605ZM175.174 37.4419C178.867 37.4419 181.86 34.4484 181.86 30.7558C181.86 27.0632 178.867 24.0698 175.174 24.0698C171.482 24.0698 168.488 27.0632 168.488 30.7558C168.488 34.4484 171.482 37.4419 175.174 37.4419ZM181.86 54.8256C181.86 58.5182 178.867 61.5116 175.174 61.5116C171.482 61.5116 168.488 58.5182 168.488 54.8256C168.488 51.133 171.482 48.1395 175.174 48.1395C178.867 48.1395 181.86 51.133 181.86 54.8256ZM175.174 85.5814C178.867 85.5814 181.86 82.588 181.86 78.8953C181.86 75.2027 178.867 72.2093 175.174 72.2093C171.482 72.2093 168.488 75.2027 168.488 78.8953C168.488 82.588 171.482 85.5814 175.174 85.5814ZM181.86 102.965C181.86 106.658 178.867 109.651 175.174 109.651C171.482 109.651 168.488 106.658 168.488 102.965C168.488 99.2725 171.482 96.2791 175.174 96.2791C178.867 96.2791 181.86 99.2725 181.86 102.965ZM199.244 13.3721C202.937 13.3721 205.93 10.3787 205.93 6.68605C205.93 2.99344 202.937 0 199.244 0C195.552 0 192.558 2.99344 192.558 6.68605C192.558 10.3787 195.552 13.3721 199.244 13.3721ZM205.93 30.7558C205.93 34.4484 202.937 37.4419 199.244 37.4419C195.552 37.4419 192.558 34.4484 192.558 30.7558C192.558 27.0632 195.552 24.0698 199.244 24.0698C202.937 24.0698 205.93 27.0632 205.93 30.7558ZM199.244 61.5116C202.937 61.5116 205.93 58.5182 205.93 54.8256C205.93 51.133 202.937 48.1395 199.244 48.1395C195.552 48.1395 192.558 51.133 192.558 54.8256C192.558 58.5182 195.552 61.5116 199.244 61.5116ZM205.93 78.8953C205.93 82.588 202.937 85.5814 199.244 85.5814C195.552 85.5814 192.558 82.588 192.558 78.8953C192.558 75.2027 195.552 72.2093 199.244 72.2093C202.937 72.2093 205.93 75.2027 205.93 78.8953ZM199.244 109.651C202.937 109.651 205.93 106.658 205.93 102.965C205.93 99.2725 202.937 96.2791 199.244 96.2791C195.552 96.2791 192.558 99.2725 192.558 102.965C192.558 106.658 195.552 109.651 199.244 109.651ZM230 6.68605C230 10.3787 227.007 13.3721 223.314 13.3721C219.621 13.3721 216.628 10.3787 216.628 6.68605C216.628 2.99344 219.621 0 223.314 0C227.007 0 230 2.99344 230 6.68605ZM223.314 37.4419C227.007 37.4419 230 34.4484 230 30.7558C230 27.0632 227.007 24.0698 223.314 24.0698C219.621 24.0698 216.628 27.0632 216.628 30.7558C216.628 34.4484 219.621 37.4419 223.314 37.4419ZM230 54.8256C230 58.5182 227.007 61.5116 223.314 61.5116C219.621 61.5116 216.628 58.5182 216.628 54.8256C216.628 51.133 219.621 48.1395 223.314 48.1395C227.007 48.1395 230 51.133 230 54.8256ZM223.314 85.5814C227.007 85.5814 230 82.588 230 78.8953C230 75.2027 227.007 72.2093 223.314 72.2093C219.621 72.2093 216.628 75.2027 216.628 78.8953C216.628 82.588 219.621 85.5814 223.314 85.5814ZM230 102.965C230 106.658 227.007 109.651 223.314 109.651C219.621 109.651 216.628 106.658 216.628 102.965C216.628 99.2725 219.621 96.2791 223.314 96.2791C227.007 96.2791 230 99.2725 230 102.965Z" fill="#FFFAED"/>
</svg>
